<?xml version="1.0" encoding="UTF-8" standalone="no"?>
<!-- Created with Inkscape (http://www.inkscape.org/) -->

<svg
   version="1.1"
   id="svg2"
   width="413.74667"
   height="170.45332"
   viewBox="0 0 413.74667 170.45332"
   sodipodi:docname="ul_logo.eps"
   xmlns:inkscape="http://www.inkscape.org/namespaces/inkscape"
   xmlns:sodipodi="http://sodipodi.sourceforge.net/DTD/sodipodi-0.dtd"
   xmlns="http://www.w3.org/2000/svg"
   xmlns:svg="http://www.w3.org/2000/svg">
  <defs
     id="defs6" />
  <sodipodi:namedview
     id="namedview4"
     pagecolor="#ffffff"
     bordercolor="#000000"
     borderopacity="0.25"
     inkscape:showpageshadow="2"
     inkscape:pageopacity="0.0"
     inkscape:pagecheckerboard="0"
     inkscape:deskcolor="#d1d1d1" />
  <g
     id="g8"
     inkscape:groupmode="layer"
     inkscape:label="ink_ext_XXXXXX"
     transform="matrix(1.3333333,0,0,-1.3333333,0,170.45333)">
    <g
       id="g10"
       transform="scale(0.1)">
      <path
         d="m 1362.89,1114.34 h 31.05 V 959.414 c 0,-40.019 -28.65,-80.426 -92.78,-80.426 -58.16,0 -92.83,29.469 -92.83,78.973 v 156.379 h 35.01 V 962.305 c 0,-39.864 19.29,-58.348 60.68,-58.348 40.65,0 58.87,29.285 58.87,58.348 v 152.035"
         style="fill:#000000;fill-opacity:1;fill-rule:nonzero;stroke:none"
         id="path12" />
      <path
         d="m 1493.52,1114.34 h -30.08 V 883.348 h 30.03 v 176.612 l 138.28,-176.612 h 31.65 v 230.992 h -30.12 V 935.551 l -139.76,178.789"
         style="fill:#000000;fill-opacity:1;fill-rule:nonzero;stroke:none"
         id="path14" />
      <path
         d="M 1772.43,1114.34 V 883.348 h -34.72 v 230.992 h 34.72"
         style="fill:#000000;fill-opacity:1;fill-rule:nonzero;stroke:none"
         id="path16" />
      <path
         d="m 1821.4,1114.34 h 35.36 l 57.05,-173.277 62.84,173.277 h 29.64 L 1918.2,883.348 h -17.77 l -79.03,230.992"
         style="fill:#000000;fill-opacity:1;fill-rule:nonzero;stroke:none"
         id="path18" />
      <path
         d="m 2190.84,1114.34 v -24.35 h -102.66 v -75.3 h 82.13 v -24.252 h -82.13 v -82.637 h 102.66 v -24.453 h -137.6 v 230.992 h 137.6"
         style="fill:#000000;fill-opacity:1;fill-rule:nonzero;stroke:none"
         id="path20" />
      <path
         d="m 2344.09,991.836 3.87,1.125 c 17.72,5.246 43.47,32.499 43.47,63.359 0,27.97 -25.75,58.02 -82.2,58.02 H 2246 V 883.348 h 35.01 V 1092.7 h 25.08 c 37.39,0 50.66,-21.51 50.66,-39.95 0,-19.43 -15.85,-46.77 -51.05,-46.77 0,0 -5.93,0 -8.71,0 l 77.6,-122.632 h 41.34 l -71.84,108.488"
         style="fill:#000000;fill-opacity:1;fill-rule:nonzero;stroke:none"
         id="path22" />
      <path
         d="m 2557.87,937.738 c 0,21.703 -20.57,34.063 -44.32,48.426 l -8.01,4.844 c -26.42,16.072 -54.56,36.032 -54.56,68.842 0,33.67 29.8,59.15 69.33,59.15 33.87,0 52.69,-7.89 61.36,-11.69 -0.74,-1.65 -8.67,-20.81 -9.52,-22.92 -7.62,3.5 -23.79,10.32 -45.81,10.32 -25.03,0 -40.66,-10.91 -40.66,-28.46 0,-21.34 17.61,-32.2 39.98,-45.93 l 10.16,-6.22 c -0.04,0 1.43,-0.92 1.43,-0.92 23.02,-14.567 57.78,-36.578 57.78,-68.332 0,-39.375 -42.07,-65.86 -81.48,-65.86 -37.84,0 -59.48,10.547 -68.46,15.078 0.81,1.84 8.93,20.094 9.81,22.11 0.06,-0.043 0.24,-0.121 0.24,-0.121 10.13,-4.524 29.07,-12.832 59.14,-12.832 23.96,0 43.59,15.515 43.59,34.515"
         style="fill:#000000;fill-opacity:1;fill-rule:nonzero;stroke:none"
         id="path24" />
      <path
         d="M 2688.34,1114.34 V 883.348 h -34.63 v 230.992 h 34.63"
         style="fill:#000000;fill-opacity:1;fill-rule:nonzero;stroke:none"
         id="path26" />
      <path
         d="m 2920.12,1114.34 v -24.35 h -75.51 V 883.348 h -35.02 v 206.642 h -75.91 v 24.35 h 186.44"
         style="fill:#000000;fill-opacity:1;fill-rule:nonzero;stroke:none"
         id="path28" />
      <path
         d="m 3000.46,1089.99 v -75.3 h 82.1 v -24.252 h -82.1 v -82.637 c 0,0 100.13,0 102.63,0 V 883.348 H 2965.4 v 230.992 h 137.69 v -24.35 h -102.63"
         style="fill:#000000;fill-opacity:1;fill-rule:nonzero;stroke:none"
         id="path30" />
      <path
         d="m 3068.71,1191.22 13.59,-20.36 -59.37,-32.43 -8.13,12.59 53.91,40.2"
         style="fill:#000000;fill-opacity:1;fill-rule:nonzero;stroke:none"
         id="path32" />
      <path
         d="m 2235.25,791.711 v -2.332 c 49.43,-19.063 22.18,-81.606 0.77,-135.707 L 2127.71,379.805 1969.53,791.711 h -105.72 v -2.332 c 30.91,-23.578 47.16,-70.168 62.16,-109.031 l 150.79,-390.274 h 76.17 l 201.13,501.637 h -118.81"
         style="fill:#000000;fill-opacity:1;fill-rule:nonzero;stroke:none"
         id="path34" />
      <path
         d="m 3103.09,364.969 c -29.2,-13.387 -61.35,-19.707 -97.12,-19.707 h -108.35 v 446.449 h -117.16 v -2.332 c 36.72,-12.543 35.88,-69.875 35.88,-105.191 l -0.06,-391.493 c -39.02,19.41 -59.25,64.645 -77.53,107.938 L 2573.08,791.711 H 2447.2 v -2.332 c 37.76,-11.203 23.41,-43.453 11.92,-70.859 L 2326.05,400.633 c -18.15,-43.293 -36.96,-88.231 -77.3,-108.25 v -2.309 h 99.59 l 51.09,132.621 h 244.38 l 52.71,-132.621 h 406.57 z m -682.07,113.898 99.44,247.996 101,-247.996 z"
         style="fill:#000000;fill-opacity:1;fill-rule:nonzero;stroke:none"
         id="path36" />
      <path
         d="m 1908.12,400.633 -165.74,391.078 h -125.82 v -2.332 c 37.75,-11.203 23.4,-43.453 11.95,-70.859 l -0.01,-0.036 -0.02,0.036 -133.06,-317.887 c -6.61,-15.75 -13.31,-31.707 -21.1,-46.613 -19.21,-5.688 -39.61,-8.766 -61.38,-8.766 H 1304.57 V 791.66 h -117.14 v -2.336 c 36.74,-12.535 35.9,-69.859 35.9,-105.176 l -0.06,-394.074 h 294.43 l 51.09,132.621 h 244.37 0.05 l 52.69,-132.621 h 120.35 v 2.309 c -41.66,21.062 -59.79,64.785 -78.13,108.25 z m -317.73,78.234 99.41,247.996 101.04,-247.996 z"
         style="fill:#000000;fill-opacity:1;fill-rule:nonzero;stroke:none"
         id="path38" />
      <path
         d="M 0,1278.38 V 279.355 c 0,-85.996 66.2305,-153.3 150.758,-153.3 H 388.18 c 31.742,0 73.058,-21.426 93.734,-81.5628 L 493.359,11.2461 C 496.18,4.375 500.168,0 504.734,0 c 4.493,0 8.559,4.375 11.368,11.2461 l 11.449,33.2461 c 20.679,60.1368 61.937,81.5628 93.679,81.5628 h 237.43 c 84.555,0 150.73,67.304 150.73,153.3 V 1278.38 H 0"
         style="fill:#000000;fill-opacity:1;fill-rule:nonzero;stroke:none"
         id="path40" />
      <path
         d="M 415.176,1254.27 H 24.1094 V 791.719 H 415.176 v 462.551"
         style="fill:#ed1c24;fill-opacity:1;fill-rule:nonzero;stroke:none"
         id="path42" />
      <path
         d="M 24.1094,612.73 V 279.355 c 0,-75.179 58.0312,-129.179 126.6486,-129.179 0,0 236.984,0 237.422,0 8.566,0 17.699,-1.211 26.996,-3.836 V 612.73 H 24.1094"
         style="fill:#ed1c24;fill-opacity:1;fill-rule:nonzero;stroke:none"
         id="path44" />
      <path
         d="M 985.27,791.719 V 1254.27 H 594.176 V 791.719 H 985.27"
         style="fill:#ed1c24;fill-opacity:1;fill-rule:nonzero;stroke:none"
         id="path46" />
      <path
         d="m 594.176,146.316 c 9.332,2.641 18.48,3.86 27.054,3.86 0.442,0 237.43,0 237.43,0 68.613,0 126.61,54 126.61,129.179 V 612.73 H 594.176 V 146.316"
         style="fill:#ed1c24;fill-opacity:1;fill-rule:nonzero;stroke:none"
         id="path48" />
      <path
         d="m 594.176,791.719 v 462.551 h -179 V 791.719 H 24.1094 V 612.73 H 415.176 V 146.34 c 33.965,-9.551 70.234,-37.805 89.558,-94.0353 19.309,56.1723 55.539,84.4333 89.442,94.0113 V 612.73 H 985.27 V 791.719 H 594.176"
         style="fill:#fbc707;fill-opacity:1;fill-rule:nonzero;stroke:none"
         id="path50" />
      <path
         d="m 168.379,1063.28 c 0.809,-2.93 -1.094,-5.3 -3.25,-6.38 -4.066,-2.06 -15.902,-2.92 -20.434,-1.43 0,0 -5.933,-10.63 -14.683,-10.63 -8.75,0 -14.692,10.63 -14.692,10.63 -4.527,-1.49 -16.3747,-0.63 -20.4372,1.43 -2.1523,1.08 -4.0586,3.45 -3.2461,6.38 2.5,9.5 10.4333,40.31 13.1253,51.12 l -16.0003,-5.93 c -2.7851,-12.19 -11.3125,-31.81 -25.8711,-32.88 -2.0976,-0.18 -5.125,0.7 -4.9414,2.69 1.875,16.49 11.9024,91.06 12.9063,98.17 0.9687,7.07 3.2148,10.39 8.2226,12.01 4.8086,1.56 8.4336,0.43 13.6172,-4.25 4.0039,-3.57 18.5037,-17 18.5037,-17 0,0 1.621,12.25 2.059,16.19 -1.688,0 -3.809,0 -3.809,0 -2.097,0 -3.785,1.68 -3.785,3.75 l 1.719,14.81 c 0,1.5 0.937,2.87 2.222,3.44 0,0 6.286,3 11.469,5 5.188,1.99 8.938,1.99 8.938,1.99 4.183,-0.12 7.429,-1.25 10.121,-3.37 3.09,-2.37 4.933,-5.81 5.375,-9.94 l 3.308,-31.87 c 0,0 14.504,13.43 18.497,17 5.187,4.68 8.816,5.81 13.625,4.25 5,-1.62 7.253,-4.94 8.222,-12.01 1.008,-7.11 11.035,-81.68 12.91,-98.17 0.188,-1.99 -2.851,-2.87 -4.941,-2.69 -14.563,1.07 -23.098,20.69 -25.879,32.88 l -15.996,5.93 c 2.691,-10.81 10.625,-41.62 13.125,-51.12"
         style="fill:#000000;fill-opacity:1;fill-rule:nonzero;stroke:none"
         id="path52" />
      <path
         d="m 347.566,1063.28 c 0.813,-2.93 -1.093,-5.3 -3.25,-6.38 -4.062,-2.06 -15.898,-2.92 -20.429,-1.43 0,0 -5.938,-10.63 -14.688,-10.63 -8.75,0 -14.687,10.63 -14.687,10.63 -4.532,-1.49 -16.371,-0.63 -20.434,1.43 -2.152,1.08 -4.058,3.45 -3.25,6.38 2.5,9.5 10.438,40.31 13.125,51.12 l -16.004,-5.93 c -2.777,-12.19 -11.308,-31.81 -25.871,-32.88 -2.098,-0.18 -5.125,0.7 -4.937,2.69 1.875,16.49 11.902,91.06 12.91,98.17 0.965,7.07 3.211,10.39 8.219,12.01 4.804,1.56 8.429,0.43 13.621,-4.25 4,-3.57 18.5,-17 18.5,-17 0,0 1.621,12.25 2.058,16.19 -1.687,0 -3.808,0 -3.808,0 -2.098,0 -3.782,1.68 -3.782,3.75 l 1.719,14.81 c 0,1.5 0.938,2.87 2.223,3.44 0,0 6.277,3 11.465,5 5.183,1.99 8.933,1.99 8.933,1.99 4.192,-0.12 7.438,-1.25 10.125,-3.37 3.094,-2.37 4.934,-5.81 5.371,-9.94 l 3.313,-31.87 c 0,0 14.504,13.43 18.496,17 5.191,4.68 8.816,5.81 13.629,4.25 5,-1.62 7.25,-4.94 8.215,-12.01 1.007,-7.11 11.039,-81.68 12.914,-98.17 0.183,-1.99 -2.848,-2.87 -4.946,-2.69 -14.558,1.07 -23.093,20.69 -25.871,32.88 l -15.996,5.93 c 2.692,-10.81 10.617,-41.62 13.117,-51.12"
         style="fill:#000000;fill-opacity:1;fill-rule:nonzero;stroke:none"
         id="path54" />
      <path
         d="m 168.379,852.051 c 0.809,-2.934 -1.094,-5.297 -3.25,-6.375 -4.066,-2.063 -15.902,-2.926 -20.434,-1.438 0,0 -5.933,-10.625 -14.683,-10.625 -8.75,0 -14.692,10.625 -14.692,10.625 -4.527,-1.488 -16.3747,-0.625 -20.4372,1.438 -2.1523,1.078 -4.0586,3.441 -3.2461,6.375 2.5,9.496 10.4333,40.312 13.1253,51.125 L 88.7617,897.234 C 85.9766,885.051 77.4492,865.43 62.8906,864.359 c -2.0976,-0.179 -5.125,0.7 -4.9414,2.692 1.875,16.496 11.9024,91.058 12.9063,98.172 0.9687,7.066 3.2148,10.382 8.2226,12.004 4.8086,1.562 8.4336,0.441 13.6172,-4.25 4.0039,-3.563 18.5037,-17 18.5037,-17 0,0 1.621,12.25 2.059,16.191 -1.688,0 -3.809,0 -3.809,0 -2.097,0 -3.785,1.684 -3.785,3.75 l 1.719,14.812 c 0,1.497 0.937,2.868 2.222,3.442 0,0 6.286,2.996 11.469,5 5.188,1.988 8.938,1.988 8.938,1.988 4.183,-0.11 7.429,-1.246 10.121,-3.367 3.09,-2.371 4.933,-5.813 5.375,-9.941 l 3.308,-31.875 c 0,0 14.504,13.437 18.497,17 5.187,4.691 8.816,5.812 13.625,4.25 5,-1.622 7.253,-4.938 8.222,-12.004 1.008,-7.114 11.035,-81.676 12.91,-98.172 0.188,-1.992 -2.851,-2.871 -4.941,-2.692 -14.563,1.071 -23.098,20.692 -25.879,32.875 l -15.996,5.942 c 2.691,-10.813 10.625,-41.629 13.125,-51.125"
         style="fill:#000000;fill-opacity:1;fill-rule:nonzero;stroke:none"
         id="path56" />
      <path
         d="m 347.566,852.051 c 0.813,-2.934 -1.093,-5.297 -3.25,-6.375 -4.062,-2.063 -15.898,-2.926 -20.429,-1.438 0,0 -5.938,-10.625 -14.688,-10.625 -8.75,0 -14.687,10.625 -14.687,10.625 -4.532,-1.488 -16.371,-0.625 -20.434,1.438 -2.152,1.078 -4.058,3.441 -3.25,6.375 2.5,9.496 10.438,40.312 13.125,51.125 l -16.004,-5.942 c -2.777,-12.183 -11.308,-31.804 -25.871,-32.875 -2.098,-0.179 -5.125,0.7 -4.937,2.692 1.875,16.496 11.902,91.058 12.91,98.172 0.965,7.066 3.211,10.382 8.219,12.004 4.804,1.562 8.429,0.441 13.621,-4.25 4,-3.563 18.5,-17 18.5,-17 0,0 1.621,12.25 2.058,16.191 -1.687,0 -3.808,0 -3.808,0 -2.098,0 -3.782,1.684 -3.782,3.75 l 1.719,14.812 c 0,1.497 0.938,2.868 2.223,3.442 0,0 6.277,2.996 11.465,5 5.183,1.988 8.933,1.988 8.933,1.988 4.192,-0.11 7.438,-1.246 10.125,-3.367 3.094,-2.371 4.934,-5.813 5.371,-9.941 l 3.313,-31.875 c 0,0 14.504,13.437 18.496,17 5.191,4.691 8.816,5.812 13.629,4.25 5,-1.622 7.25,-4.938 8.215,-12.004 1.007,-7.114 11.039,-81.676 12.914,-98.172 0.183,-1.992 -2.848,-2.871 -4.946,-2.692 -14.558,1.071 -23.093,20.692 -25.871,32.875 l -15.996,5.942 c 2.692,-10.813 10.617,-41.629 13.117,-51.125"
         style="fill:#000000;fill-opacity:1;fill-rule:nonzero;stroke:none"
         id="path58" />
      <path
         d="m 738.445,1063.28 c 0.813,-2.93 -1.093,-5.3 -3.25,-6.38 -4.062,-2.06 -15.902,-2.92 -20.433,-1.43 0,0 -5.938,-10.63 -14.688,-10.63 -8.75,0 -14.687,10.63 -14.687,10.63 -4.532,-1.49 -16.371,-0.63 -20.438,1.43 -2.156,1.08 -4.058,3.45 -3.25,6.38 2.5,9.5 10.442,40.31 13.125,51.12 l -15.996,-5.93 c -2.781,-12.19 -11.312,-31.81 -25.867,-32.88 -2.102,-0.18 -5.129,0.7 -4.945,2.69 1.875,16.49 11.906,91.06 12.902,98.17 0.973,7.07 3.223,10.39 8.223,12.01 4.812,1.56 8.437,0.43 13.625,-4.25 4,-3.57 18.5,-17 18.5,-17 0,0 1.621,12.25 2.054,16.19 -1.679,0 -3.808,0 -3.808,0 -2.09,0 -3.782,1.68 -3.782,3.75 l 1.719,14.81 c 0,1.5 0.942,2.87 2.219,3.44 0,0 6.285,3 11.473,5 5.183,1.99 8.933,1.99 8.933,1.99 4.184,-0.12 7.438,-1.25 10.121,-3.37 3.098,-2.37 4.942,-5.81 5.379,-9.94 l 3.313,-31.87 c 0,0 14.504,13.43 18.496,17 5.183,4.68 8.808,5.81 13.625,4.25 5,-1.62 7.25,-4.94 8.219,-12.01 1.003,-7.11 11.039,-81.68 12.914,-98.17 0.179,-1.99 -2.856,-2.87 -4.946,-2.69 -14.562,1.07 -23.093,20.69 -25.879,32.88 l -15.996,5.93 c 2.688,-10.81 10.625,-41.62 13.125,-51.12"
         style="fill:#000000;fill-opacity:1;fill-rule:nonzero;stroke:none"
         id="path60" />
      <path
         d="m 917.637,1063.28 c 0.808,-2.93 -1.094,-5.3 -3.25,-6.38 -4.067,-2.06 -15.903,-2.92 -20.434,-1.43 0,0 -5.937,-10.63 -14.687,-10.63 -8.75,0 -14.688,10.63 -14.688,10.63 -4.527,-1.49 -16.375,-0.63 -20.437,1.43 -2.153,1.08 -4.059,3.45 -3.246,6.38 2.5,9.5 10.433,40.31 13.125,51.12 l -16.004,-5.93 c -2.782,-12.19 -11.305,-31.81 -25.868,-32.88 -2.097,-0.18 -5.128,0.7 -4.941,2.69 1.875,16.49 11.902,91.06 12.906,98.17 0.973,7.07 3.215,10.39 8.223,12.01 4.809,1.56 8.43,0.43 13.617,-4.25 4.004,-3.57 18.508,-17 18.508,-17 0,0 1.617,12.25 2.055,16.19 -1.688,0 -3.809,0 -3.809,0 -2.098,0 -3.785,1.68 -3.785,3.75 l 1.719,14.81 c 0,1.5 0.937,2.87 2.222,3.44 0,0 6.282,3 11.469,5 5.184,1.99 8.934,1.99 8.934,1.99 4.187,-0.12 7.433,-1.25 10.125,-3.37 3.089,-2.37 4.933,-5.81 5.375,-9.94 l 3.308,-31.87 c 0,0 14.504,13.43 18.496,17 5.188,4.68 8.817,5.81 13.625,4.25 5,-1.62 7.254,-4.94 8.223,-12.01 1.008,-7.11 11.035,-81.68 12.91,-98.17 0.188,-1.99 -2.851,-2.87 -4.941,-2.69 -14.563,1.07 -23.094,20.69 -25.879,32.88 l -15.996,5.93 c 2.691,-10.81 10.625,-41.62 13.125,-51.12"
         style="fill:#000000;fill-opacity:1;fill-rule:nonzero;stroke:none"
         id="path62" />
      <path
         d="m 738.445,852.051 c 0.813,-2.934 -1.093,-5.297 -3.25,-6.375 -4.062,-2.063 -15.902,-2.926 -20.433,-1.438 0,0 -5.938,-10.625 -14.688,-10.625 -8.75,0 -14.687,10.625 -14.687,10.625 -4.532,-1.488 -16.371,-0.625 -20.438,1.438 -2.156,1.078 -4.058,3.441 -3.25,6.375 2.5,9.496 10.442,40.312 13.125,51.125 l -15.996,-5.942 c -2.781,-12.183 -11.312,-31.804 -25.867,-32.875 -2.102,-0.179 -5.129,0.7 -4.945,2.692 1.875,16.496 11.906,91.058 12.902,98.172 0.973,7.066 3.223,10.382 8.223,12.004 4.812,1.562 8.437,0.441 13.625,-4.25 4,-3.563 18.5,-17 18.5,-17 0,0 1.621,12.25 2.054,16.191 -1.679,0 -3.808,0 -3.808,0 -2.09,0 -3.782,1.684 -3.782,3.75 l 1.719,14.812 c 0,1.497 0.942,2.868 2.219,3.442 0,0 6.285,2.996 11.473,5 5.183,1.988 8.933,1.988 8.933,1.988 4.184,-0.11 7.438,-1.246 10.121,-3.367 3.098,-2.371 4.942,-5.813 5.379,-9.941 l 3.313,-31.875 c 0,0 14.504,13.437 18.496,17 5.183,4.691 8.808,5.812 13.625,4.25 5,-1.622 7.25,-4.938 8.219,-12.004 1.003,-7.114 11.039,-81.676 12.914,-98.172 0.179,-1.992 -2.856,-2.871 -4.946,-2.692 -14.562,1.071 -23.093,20.692 -25.879,32.875 l -15.996,5.942 c 2.688,-10.813 10.625,-41.629 13.125,-51.125"
         style="fill:#000000;fill-opacity:1;fill-rule:nonzero;stroke:none"
         id="path64" />
      <path
         d="m 917.637,852.051 c 0.808,-2.934 -1.094,-5.297 -3.25,-6.375 -4.067,-2.063 -15.903,-2.926 -20.434,-1.438 0,0 -5.937,-10.625 -14.687,-10.625 -8.75,0 -14.688,10.625 -14.688,10.625 -4.527,-1.488 -16.375,-0.625 -20.437,1.438 -2.153,1.078 -4.059,3.441 -3.246,6.375 2.5,9.496 10.433,40.312 13.125,51.125 l -16.004,-5.942 c -2.782,-12.183 -11.305,-31.804 -25.868,-32.875 -2.097,-0.179 -5.128,0.7 -4.941,2.692 1.875,16.496 11.902,91.058 12.906,98.172 0.973,7.066 3.215,10.382 8.223,12.004 4.809,1.562 8.43,0.441 13.617,-4.25 4.004,-3.563 18.508,-17 18.508,-17 0,0 1.617,12.25 2.055,16.191 -1.688,0 -3.809,0 -3.809,0 -2.098,0 -3.785,1.684 -3.785,3.75 l 1.719,14.812 c 0,1.497 0.937,2.868 2.222,3.442 0,0 6.282,2.996 11.469,5 5.184,1.988 8.934,1.988 8.934,1.988 4.187,-0.11 7.433,-1.246 10.125,-3.367 3.089,-2.371 4.933,-5.813 5.375,-9.941 l 3.308,-31.875 c 0,0 14.504,13.437 18.496,17 5.188,4.691 8.817,5.812 13.625,4.25 5,-1.622 7.254,-4.938 8.223,-12.004 1.008,-7.114 11.035,-81.676 12.91,-98.172 0.188,-1.992 -2.851,-2.871 -4.941,-2.692 -14.563,1.071 -23.094,20.692 -25.879,32.875 l -15.996,5.942 c 2.691,-10.813 10.625,-41.629 13.125,-51.125"
         style="fill:#000000;fill-opacity:1;fill-rule:nonzero;stroke:none"
         id="path66" />
      <path
         d="m 168.379,421.738 c 0.809,-2.929 -1.094,-5.297 -3.25,-6.371 -4.066,-2.066 -15.902,-2.926 -20.434,-1.441 0,0 -5.933,-10.625 -14.683,-10.625 -8.75,0 -14.692,10.625 -14.692,10.625 -4.527,-1.485 -16.3747,-0.625 -20.4372,1.441 -2.1523,1.074 -4.0586,3.442 -3.2461,6.371 2.5,9.5 10.4333,40.313 13.1253,51.121 L 88.7617,466.93 c -2.7851,-12.188 -11.3125,-31.813 -25.8711,-32.879 -2.0976,-0.184 -5.125,0.695 -4.9414,2.687 1.875,16.5 11.9024,91.063 12.9063,98.176 0.9687,7.066 3.2148,10.379 8.2226,12 4.8086,1.563 8.4336,0.438 13.6172,-4.246 4.0039,-3.566 18.5037,-17.004 18.5037,-17.004 0,0 1.621,12.258 2.059,16.191 -1.688,0 -3.809,0 -3.809,0 -2.097,0 -3.785,1.692 -3.785,3.75 l 1.719,14.817 c 0,1.492 0.937,2.871 2.222,3.433 0,0 6.286,3 11.469,5 5.188,2 8.938,2 8.938,2 4.183,-0.125 7.429,-1.25 10.121,-3.375 3.09,-2.375 4.933,-5.808 5.375,-9.941 l 3.308,-31.875 c 0,0 14.504,13.438 18.497,17.004 5.187,4.684 8.816,5.809 13.625,4.246 5,-1.621 7.253,-4.934 8.222,-12 1.008,-7.113 11.035,-81.676 12.91,-98.176 0.188,-1.992 -2.851,-2.871 -4.941,-2.687 -14.563,1.066 -23.098,20.691 -25.879,32.879 l -15.996,5.929 c 2.691,-10.808 10.625,-41.621 13.125,-51.121"
         style="fill:#000000;fill-opacity:1;fill-rule:nonzero;stroke:none"
         id="path68" />
      <path
         d="m 347.566,421.738 c 0.813,-2.929 -1.093,-5.297 -3.25,-6.371 -4.062,-2.066 -15.898,-2.926 -20.429,-1.441 0,0 -5.938,-10.625 -14.688,-10.625 -8.75,0 -14.687,10.625 -14.687,10.625 -4.532,-1.485 -16.371,-0.625 -20.434,1.441 -2.152,1.074 -4.058,3.442 -3.25,6.371 2.5,9.5 10.438,40.313 13.125,51.121 l -16.004,-5.929 c -2.777,-12.188 -11.308,-31.813 -25.871,-32.879 -2.098,-0.184 -5.125,0.695 -4.937,2.687 1.875,16.5 11.902,91.063 12.91,98.176 0.965,7.066 3.211,10.379 8.219,12 4.804,1.563 8.429,0.438 13.621,-4.246 4,-3.566 18.5,-17.004 18.5,-17.004 0,0 1.621,12.258 2.058,16.191 -1.687,0 -3.808,0 -3.808,0 -2.098,0 -3.782,1.692 -3.782,3.75 l 1.719,14.817 c 0,1.492 0.938,2.871 2.223,3.433 0,0 6.277,3 11.465,5 5.183,2 8.933,2 8.933,2 4.192,-0.125 7.438,-1.25 10.125,-3.375 3.094,-2.375 4.934,-5.808 5.371,-9.941 l 3.313,-31.875 c 0,0 14.504,13.438 18.496,17.004 5.191,4.684 8.816,5.809 13.629,4.246 5,-1.621 7.25,-4.934 8.215,-12 1.007,-7.113 11.039,-81.676 12.914,-98.176 0.183,-1.992 -2.848,-2.871 -4.946,-2.687 -14.558,1.066 -23.093,20.691 -25.871,32.879 l -15.996,5.929 c 2.692,-10.808 10.617,-41.621 13.117,-51.121"
         style="fill:#000000;fill-opacity:1;fill-rule:nonzero;stroke:none"
         id="path70" />
      <path
         d="m 168.379,210.508 c 0.809,-2.934 -1.094,-5.293 -3.25,-6.371 -4.066,-2.067 -15.902,-2.93 -20.434,-1.442 0,0 -5.933,-10.625 -14.683,-10.625 -8.75,0 -14.692,10.625 -14.692,10.625 -4.527,-1.488 -16.3747,-0.625 -20.4372,1.442 -2.1523,1.078 -4.0586,3.437 -3.2461,6.371 2.5,9.5 10.4333,40.312 13.1253,51.125 L 88.7617,255.699 C 85.9766,243.512 77.4492,223.887 62.8906,222.82 c -2.0976,-0.183 -5.125,0.696 -4.9414,2.688 1.875,16.5 11.9024,91.062 12.9063,98.172 0.9687,7.074 3.2148,10.383 8.2226,12.004 4.8086,1.562 8.4336,0.441 13.6172,-4.25 4.0039,-3.563 18.5037,-17 18.5037,-17 0,0 1.621,12.254 2.059,16.191 -1.688,0 -3.809,0 -3.809,0 -2.097,0 -3.785,1.688 -3.785,3.75 l 1.719,14.813 c 0,1.496 0.937,2.871 2.222,3.441 0,0 6.286,2.996 11.469,5 5.188,1.996 8.938,1.996 8.938,1.996 4.183,-0.121 7.429,-1.25 10.121,-3.375 3.09,-2.371 4.933,-5.812 5.375,-9.941 l 3.308,-31.875 c 0,0 14.504,13.437 18.497,17 5.187,4.691 8.816,5.812 13.625,4.25 5,-1.621 7.253,-4.93 8.222,-12.004 1.008,-7.11 11.035,-81.672 12.91,-98.172 0.188,-1.992 -2.851,-2.871 -4.941,-2.688 -14.563,1.067 -23.098,20.692 -25.879,32.879 l -15.996,5.934 c 2.691,-10.813 10.625,-41.625 13.125,-51.125"
         style="fill:#000000;fill-opacity:1;fill-rule:nonzero;stroke:none"
         id="path72" />
      <path
         d="m 347.566,210.508 c 0.813,-2.934 -1.093,-5.293 -3.25,-6.371 -4.062,-2.067 -15.898,-2.93 -20.429,-1.442 0,0 -5.938,-10.625 -14.688,-10.625 -8.75,0 -14.687,10.625 -14.687,10.625 -4.532,-1.488 -16.371,-0.625 -20.434,1.442 -2.152,1.078 -4.058,3.437 -3.25,6.371 2.5,9.5 10.438,40.312 13.125,51.125 l -16.004,-5.934 c -2.777,-12.187 -11.308,-31.812 -25.871,-32.879 -2.098,-0.183 -5.125,0.696 -4.937,2.688 1.875,16.5 11.902,91.062 12.91,98.172 0.965,7.074 3.211,10.383 8.219,12.004 4.804,1.562 8.429,0.441 13.621,-4.25 4,-3.563 18.5,-17 18.5,-17 0,0 1.621,12.254 2.058,16.191 -1.687,0 -3.808,0 -3.808,0 -2.098,0 -3.782,1.688 -3.782,3.75 l 1.719,14.813 c 0,1.496 0.938,2.871 2.223,3.441 0,0 6.277,2.996 11.465,5 5.183,1.996 8.933,1.996 8.933,1.996 4.192,-0.121 7.438,-1.25 10.125,-3.375 3.094,-2.371 4.934,-5.812 5.371,-9.941 l 3.313,-31.875 c 0,0 14.504,13.437 18.496,17 5.191,4.691 8.816,5.812 13.629,4.25 5,-1.621 7.25,-4.93 8.215,-12.004 1.007,-7.11 11.039,-81.672 12.914,-98.172 0.183,-1.992 -2.848,-2.871 -4.946,-2.688 -14.558,1.067 -23.093,20.692 -25.871,32.879 l -15.996,5.934 c 2.692,-10.813 10.617,-41.625 13.117,-51.125"
         style="fill:#000000;fill-opacity:1;fill-rule:nonzero;stroke:none"
         id="path74" />
      <path
         d="m 738.445,421.738 c 0.813,-2.929 -1.093,-5.297 -3.25,-6.371 -4.062,-2.066 -15.902,-2.926 -20.433,-1.441 0,0 -5.938,-10.625 -14.688,-10.625 -8.75,0 -14.687,10.625 -14.687,10.625 -4.532,-1.485 -16.371,-0.625 -20.438,1.441 -2.156,1.074 -4.058,3.442 -3.25,6.371 2.5,9.5 10.442,40.313 13.125,51.121 l -15.996,-5.929 c -2.781,-12.188 -11.312,-31.813 -25.867,-32.879 -2.102,-0.184 -5.129,0.695 -4.945,2.687 1.875,16.5 11.906,91.063 12.902,98.176 0.973,7.066 3.223,10.379 8.223,12 4.812,1.563 8.437,0.438 13.625,-4.246 4,-3.566 18.5,-17.004 18.5,-17.004 0,0 1.621,12.258 2.054,16.191 -1.679,0 -3.808,0 -3.808,0 -2.09,0 -3.782,1.692 -3.782,3.75 l 1.719,14.817 c 0,1.492 0.942,2.871 2.219,3.433 0,0 6.285,3 11.473,5 5.183,2 8.933,2 8.933,2 4.184,-0.125 7.438,-1.25 10.121,-3.375 3.098,-2.375 4.942,-5.808 5.379,-9.941 l 3.313,-31.875 c 0,0 14.504,13.438 18.496,17.004 5.183,4.684 8.808,5.809 13.625,4.246 5,-1.621 7.25,-4.934 8.219,-12 1.003,-7.113 11.039,-81.676 12.914,-98.176 0.179,-1.992 -2.856,-2.871 -4.946,-2.687 -14.562,1.066 -23.093,20.691 -25.879,32.879 l -15.996,5.929 c 2.688,-10.808 10.625,-41.621 13.125,-51.121"
         style="fill:#000000;fill-opacity:1;fill-rule:nonzero;stroke:none"
         id="path76" />
      <path
         d="m 917.637,421.738 c 0.808,-2.929 -1.094,-5.297 -3.25,-6.371 -4.067,-2.066 -15.903,-2.926 -20.434,-1.441 0,0 -5.937,-10.625 -14.687,-10.625 -8.75,0 -14.688,10.625 -14.688,10.625 -4.527,-1.485 -16.375,-0.625 -20.437,1.441 -2.153,1.074 -4.059,3.442 -3.246,6.371 2.5,9.5 10.433,40.313 13.125,51.121 l -16.004,-5.929 c -2.782,-12.188 -11.305,-31.813 -25.868,-32.879 -2.097,-0.184 -5.128,0.695 -4.941,2.687 1.875,16.5 11.902,91.063 12.906,98.176 0.973,7.066 3.215,10.379 8.223,12 4.809,1.563 8.43,0.438 13.617,-4.246 4.004,-3.566 18.508,-17.004 18.508,-17.004 0,0 1.617,12.258 2.055,16.191 -1.688,0 -3.809,0 -3.809,0 -2.098,0 -3.785,1.692 -3.785,3.75 l 1.719,14.817 c 0,1.492 0.937,2.871 2.222,3.433 0,0 6.282,3 11.469,5 5.184,2 8.934,2 8.934,2 4.187,-0.125 7.433,-1.25 10.125,-3.375 3.089,-2.375 4.933,-5.808 5.375,-9.941 l 3.308,-31.875 c 0,0 14.504,13.438 18.496,17.004 5.188,4.684 8.817,5.809 13.625,4.246 5,-1.621 7.254,-4.934 8.223,-12 1.008,-7.113 11.035,-81.676 12.91,-98.176 0.188,-1.992 -2.851,-2.871 -4.941,-2.687 -14.563,1.066 -23.094,20.691 -25.879,32.879 l -15.996,5.929 c 2.691,-10.808 10.625,-41.621 13.125,-51.121"
         style="fill:#000000;fill-opacity:1;fill-rule:nonzero;stroke:none"
         id="path78" />
      <path
         d="m 738.445,210.508 c 0.813,-2.934 -1.093,-5.293 -3.25,-6.371 -4.062,-2.067 -15.902,-2.93 -20.433,-1.442 0,0 -5.938,-10.625 -14.688,-10.625 -8.75,0 -14.687,10.625 -14.687,10.625 -4.532,-1.488 -16.371,-0.625 -20.438,1.442 -2.156,1.078 -4.058,3.437 -3.25,6.371 2.5,9.5 10.442,40.312 13.125,51.125 l -15.996,-5.934 c -2.781,-12.187 -11.312,-31.812 -25.867,-32.879 -2.102,-0.183 -5.129,0.696 -4.945,2.688 1.875,16.5 11.906,91.062 12.902,98.172 0.973,7.074 3.223,10.383 8.223,12.004 4.812,1.562 8.437,0.441 13.625,-4.25 4,-3.563 18.5,-17 18.5,-17 0,0 1.621,12.254 2.054,16.191 -1.679,0 -3.808,0 -3.808,0 -2.09,0 -3.782,1.688 -3.782,3.75 l 1.719,14.813 c 0,1.496 0.942,2.871 2.219,3.441 0,0 6.285,2.996 11.473,5 5.183,1.996 8.933,1.996 8.933,1.996 4.184,-0.121 7.438,-1.25 10.121,-3.375 3.098,-2.371 4.942,-5.812 5.379,-9.941 l 3.313,-31.875 c 0,0 14.504,13.437 18.496,17 5.183,4.691 8.808,5.812 13.625,4.25 5,-1.621 7.25,-4.93 8.219,-12.004 1.003,-7.11 11.039,-81.672 12.914,-98.172 0.179,-1.992 -2.856,-2.871 -4.946,-2.688 -14.562,1.067 -23.093,20.692 -25.879,32.879 l -15.996,5.934 c 2.688,-10.813 10.625,-41.625 13.125,-51.125"
         style="fill:#000000;fill-opacity:1;fill-rule:nonzero;stroke:none"
         id="path80" />
      <path
         d="m 917.637,210.508 c 0.808,-2.934 -1.094,-5.293 -3.25,-6.371 -4.067,-2.067 -15.903,-2.93 -20.434,-1.442 0,0 -5.937,-10.625 -14.687,-10.625 -8.75,0 -14.688,10.625 -14.688,10.625 -4.527,-1.488 -16.375,-0.625 -20.437,1.442 -2.153,1.078 -4.059,3.437 -3.246,6.371 2.5,9.5 10.433,40.312 13.125,51.125 l -16.004,-5.934 c -2.782,-12.187 -11.305,-31.812 -25.868,-32.879 -2.097,-0.183 -5.128,0.696 -4.941,2.688 1.875,16.5 11.902,91.062 12.906,98.172 0.973,7.074 3.215,10.383 8.223,12.004 4.809,1.562 8.43,0.441 13.617,-4.25 4.004,-3.563 18.508,-17 18.508,-17 0,0 1.617,12.254 2.055,16.191 -1.688,0 -3.809,0 -3.809,0 -2.098,0 -3.785,1.688 -3.785,3.75 l 1.719,14.813 c 0,1.496 0.937,2.871 2.222,3.441 0,0 6.282,2.996 11.469,5 5.184,1.996 8.934,1.996 8.934,1.996 4.187,-0.121 7.433,-1.25 10.125,-3.375 3.089,-2.371 4.933,-5.812 5.375,-9.941 l 3.308,-31.875 c 0,0 14.504,13.437 18.496,17 5.188,4.691 8.817,5.812 13.625,4.25 5,-1.621 7.254,-4.93 8.223,-12.004 1.008,-7.11 11.035,-81.672 12.91,-98.172 0.188,-1.992 -2.851,-2.871 -4.941,-2.688 -14.563,1.067 -23.094,20.692 -25.879,32.879 l -15.996,5.934 c 2.691,-10.813 10.625,-41.625 13.125,-51.125"
         style="fill:#000000;fill-opacity:1;fill-rule:nonzero;stroke:none"
         id="path82" />
      <path
         d="m 504.695,957.082 c 7.707,0 14.387,4.031 18.243,10.074 3.039,-1.562 6.437,-2.461 10.05,-2.461 11.231,0 20.442,8.547 21.582,19.477 11.735,0.23 21.274,9.891 21.274,21.698 0,5.38 -2.016,10.32 -5.297,14.14 -5.234,6.29 -24.195,29.1 -24.496,29.46 0,1.33 0,12.25 0,12.25 0,5.81 -4.664,10.57 -10.477,10.57 0,0 -10.168,0 -10.801,0 -1.203,1.17 -9.785,9.68 -9.843,9.84 -2.703,2.76 -6.317,4.26 -10.235,4.26 -3.902,0 -7.515,-1.5 -10.23,-4.26 -0.063,-0.16 -8.637,-8.67 -9.836,-9.84 -0.637,0 -10.813,0 -10.813,0 -5.8,0 -10.468,-4.76 -10.468,-10.57 0,0 0,-10.92 0,-12.25 -0.301,-0.36 -19.262,-23.17 -24.5,-29.46 -3.282,-3.82 -5.293,-8.76 -5.293,-14.14 0,-11.807 9.543,-21.468 21.281,-21.698 1.141,-10.93 10.348,-19.477 21.574,-19.477 3.61,0 7.012,0.899 10.055,2.461 3.848,-6.043 10.527,-10.074 18.23,-10.074"
         style="fill:#000000;fill-opacity:1;fill-rule:nonzero;stroke:none"
         id="path84" />
      <path
         d="m 504.695,636.309 c 7.707,0 14.387,4.035 18.243,10.078 3.039,-1.563 6.437,-2.465 10.05,-2.465 11.231,0 20.442,8.547 21.582,19.473 11.735,0.238 21.274,9.898 21.274,21.699 0,5.383 -2.016,10.316 -5.297,14.144 -5.234,6.289 -24.195,29.102 -24.496,29.461 0,1.324 0,12.246 0,12.246 0,5.813 -4.664,10.567 -10.477,10.567 0,0 -10.168,0 -10.801,0 -1.203,1.172 -9.785,9.687 -9.843,9.84 -2.703,2.769 -6.317,4.273 -10.235,4.273 -3.902,0 -7.515,-1.504 -10.23,-4.273 -0.063,-0.153 -8.637,-8.668 -9.836,-9.84 -0.637,0 -10.813,0 -10.813,0 -5.8,0 -10.468,-4.754 -10.468,-10.567 0,0 0,-10.922 0,-12.246 -0.301,-0.359 -19.262,-23.172 -24.5,-29.461 -3.282,-3.828 -5.293,-8.761 -5.293,-14.144 0,-11.801 9.543,-21.461 21.281,-21.699 1.141,-10.926 10.348,-19.473 21.574,-19.473 3.61,0 7.012,0.902 10.055,2.465 3.848,-6.043 10.527,-10.078 18.23,-10.078"
         style="fill:#000000;fill-opacity:1;fill-rule:nonzero;stroke:none"
         id="path86" />
      <path
         d="m 219.645,636.309 c 7.703,0 14.386,4.035 18.238,10.078 3.035,-1.563 6.441,-2.465 10.051,-2.465 11.226,0 20.433,8.547 21.578,19.473 11.738,0.238 21.281,9.898 21.281,21.699 0,5.383 -2.02,10.316 -5.301,14.144 -5.238,6.289 -24.191,29.102 -24.496,29.461 0,1.324 0,12.246 0,12.246 0,5.813 -4.668,10.567 -10.473,10.567 0,0 -10.171,0 -10.804,0 -1.203,1.172 -9.778,9.687 -9.848,9.84 -2.703,2.769 -6.316,4.273 -10.226,4.273 -3.915,0 -7.528,-1.504 -10.231,-4.273 -0.062,-0.153 -8.644,-8.668 -9.844,-9.84 -0.629,0 -10.8,0 -10.8,0 -5.809,0 -10.477,-4.754 -10.477,-10.567 0,0 0,-10.922 0,-12.246 -0.301,-0.359 -19.262,-23.172 -24.492,-29.461 -3.285,-3.828 -5.305,-8.761 -5.305,-14.144 0,-11.801 9.539,-21.461 21.277,-21.699 1.145,-10.926 10.356,-19.473 21.582,-19.473 3.61,0 7.012,0.902 10.051,2.465 3.852,-6.043 10.535,-10.078 18.239,-10.078"
         style="fill:#000000;fill-opacity:1;fill-rule:nonzero;stroke:none"
         id="path88" />
      <path
         d="m 789.707,636.309 c 7.703,0 14.387,4.035 18.238,10.078 3.039,-1.563 6.442,-2.465 10.055,-2.465 11.223,0 20.438,8.547 21.574,19.473 11.735,0.238 21.274,9.898 21.274,21.699 0,5.383 -2.008,10.316 -5.289,14.144 -5.239,6.289 -24.204,29.102 -24.504,29.461 0,1.324 0,12.246 0,12.246 0,5.813 -4.66,10.567 -10.469,10.567 0,0 -10.176,0 -10.801,0 -1.211,1.172 -9.785,9.687 -9.844,9.84 -2.711,2.769 -6.316,4.273 -10.234,4.273 -3.91,0 -7.523,-1.504 -10.234,-4.273 -0.059,-0.153 -8.633,-8.668 -9.84,-9.84 -0.629,0 -10.805,0 -10.805,0 -5.805,0 -10.469,-4.754 -10.469,-10.567 0,0 0,-10.922 0,-12.246 -0.304,-0.359 -19.265,-23.172 -24.504,-29.461 -3.281,-3.828 -5.292,-8.761 -5.292,-14.144 0,-11.801 9.542,-21.461 21.277,-21.699 1.14,-10.926 10.351,-19.473 21.578,-19.473 3.609,0 7.012,0.902 10.051,2.465 3.851,-6.043 10.535,-10.078 18.238,-10.078"
         style="fill:#000000;fill-opacity:1;fill-rule:nonzero;stroke:none"
         id="path90" />
      <path
         d="m 504.695,315.543 c 7.707,0 14.387,4.027 18.243,10.078 3.039,-1.562 6.437,-2.461 10.05,-2.461 11.231,0 20.442,8.551 21.582,19.469 11.735,0.242 21.274,9.898 21.274,21.703 0,5.387 -2.016,10.316 -5.297,14.141 -5.234,6.289 -24.195,29.101 -24.496,29.465 0,1.32 0,12.246 0,12.246 0,5.812 -4.664,10.57 -10.477,10.57 0,0 -10.168,0 -10.801,0 -1.203,1.172 -9.785,9.684 -9.843,9.832 -2.703,2.773 -6.317,4.277 -10.235,4.277 -3.902,0 -7.515,-1.504 -10.23,-4.277 -0.063,-0.148 -8.637,-8.66 -9.836,-9.832 -0.637,0 -10.813,0 -10.813,0 -5.8,0 -10.468,-4.758 -10.468,-10.57 0,0 0,-10.926 0,-12.246 -0.301,-0.364 -19.262,-23.176 -24.5,-29.465 -3.282,-3.825 -5.293,-8.754 -5.293,-14.141 0,-11.805 9.543,-21.461 21.281,-21.703 1.141,-10.918 10.348,-19.469 21.574,-19.469 3.61,0 7.012,0.899 10.055,2.461 3.848,-6.051 10.527,-10.078 18.23,-10.078"
         style="fill:#000000;fill-opacity:1;fill-rule:nonzero;stroke:none"
         id="path92" />
      <path
         d="m 504.695,964.211 c 5.063,0.301 9.426,3.074 11.797,7.254 l -4.168,39.365 c -0.105,1.51 0.969,2.86 2.489,3.09 1.554,0.22 3,-0.83 3.285,-2.36 l 6.945,-37.841 c 2.137,-1.199 4.605,-1.922 7.254,-1.922 7.644,0 13.875,5.898 14.508,13.422 l -16.114,37.441 c -0.64,1.47 0.032,3.19 1.504,3.83 1.422,0.62 3.071,0.02 3.762,-1.35 l 17.406,-33.87 c 0.067,0 0,0 0,0 8.098,0 14.653,6.527 14.653,14.6 0,3.06 -0.266,5.68 -1.836,7.82 l -27.657,33.13 v 14.96 c 0,1.66 -1.171,3.07 -2.949,3.07 -0.058,0 -13.902,0 -13.902,0 l -12.039,12.08 c -1.266,1.25 -3.102,2 -4.938,2 -1.836,0 -3.672,-0.75 -4.929,-2 l -12.043,-12.08 c 0,0 -13.84,0 -13.907,0 -1.769,0 -2.949,-1.41 -2.949,-3.07 v -14.96 l -27.652,-33.13 c -1.567,-2.14 -1.836,-4.76 -1.836,-7.82 0,-8.073 6.559,-14.6 14.656,-14.6 0,0 -0.058,0 0,0 l 17.403,33.87 c 0.695,1.37 2.343,1.97 3.769,1.35 1.469,-0.64 2.145,-2.36 1.504,-3.83 l -16.113,-37.441 c 0.629,-7.524 6.859,-13.422 14.5,-13.422 2.652,0 5.121,0.723 7.257,1.922 l 6.95,37.841 c 0.277,1.53 1.722,2.58 3.285,2.36 1.512,-0.23 2.59,-1.58 2.48,-3.09 l -4.172,-39.365 c 2.379,-4.18 6.747,-6.953 11.797,-7.254"
         style="fill:#00adef;fill-opacity:1;fill-rule:nonzero;stroke:none"
         id="path94" />
      <path
         d="m 504.695,643.438 c 5.063,0.3 9.426,3.074 11.797,7.253 l -4.168,39.368 c -0.105,1.504 0.969,2.863 2.489,3.086 1.554,0.226 3,-0.821 3.285,-2.352 l 6.945,-37.844 c 2.137,-1.199 4.605,-1.926 7.254,-1.926 7.644,0 13.875,5.903 14.508,13.426 l -16.114,37.434 c -0.64,1.476 0.032,3.191 1.504,3.836 1.422,0.621 3.071,0.019 3.762,-1.356 L 553.363,670.5 c 0.067,0 0,0 0,0 8.098,0 14.653,6.527 14.653,14.594 0,3.066 -0.266,5.683 -1.836,7.828 l -27.657,33.133 v 14.953 c 0,1.66 -1.171,3.074 -2.949,3.074 -0.058,0 -13.902,0 -13.902,0 l -12.039,12.066 c -1.266,1.266 -3.102,2.016 -4.938,2.016 -1.836,0 -3.672,-0.75 -4.929,-2.016 l -12.043,-12.066 c 0,0 -13.84,0 -13.907,0 -1.769,0 -2.949,-1.414 -2.949,-3.074 v -14.953 l -27.652,-33.133 c -1.567,-2.145 -1.836,-4.762 -1.836,-7.828 0,-8.067 6.559,-14.594 14.656,-14.594 0,0 -0.058,0 0,0 l 17.403,33.863 c 0.695,1.375 2.343,1.977 3.769,1.356 1.469,-0.645 2.145,-2.36 1.504,-3.836 l -16.113,-37.434 c 0.629,-7.523 6.859,-13.426 14.5,-13.426 2.652,0 5.121,0.727 7.257,1.926 l 6.95,37.844 c 0.277,1.531 1.722,2.578 3.285,2.352 1.512,-0.223 2.59,-1.582 2.48,-3.086 l -4.172,-39.368 c 2.379,-4.179 6.747,-6.953 11.797,-7.253"
         style="fill:#00adef;fill-opacity:1;fill-rule:nonzero;stroke:none"
         id="path96" />
      <path
         d="m 219.645,643.438 c 5.058,0.3 9.418,3.074 11.8,7.253 l -4.172,39.368 c -0.109,1.504 0.969,2.863 2.485,3.086 1.555,0.226 3,-0.821 3.277,-2.352 l 6.953,-37.844 c 2.141,-1.199 4.602,-1.926 7.254,-1.926 7.641,0 13.875,5.903 14.504,13.426 l -16.109,37.434 c -0.649,1.476 0.027,3.191 1.504,3.836 1.422,0.621 3.074,0.019 3.761,-1.356 L 268.309,670.5 c 0.058,0 0,0 0,0 8.097,0 14.66,6.527 14.66,14.594 0,3.066 -0.274,5.683 -1.836,7.828 l -27.66,33.133 v 14.953 c 0,1.66 -1.176,3.074 -2.95,3.074 -0.058,0 -13.902,0 -13.902,0 l -12.043,12.066 c -1.258,1.266 -3.098,2.016 -4.933,2.016 -1.832,0 -3.668,-0.75 -4.938,-2.016 l -12.035,-12.066 c 0,0 -13.844,0 -13.902,0 -1.778,0 -2.95,-1.414 -2.95,-3.074 v -14.953 l -27.66,-33.133 c -1.566,-2.145 -1.844,-4.762 -1.844,-7.828 0,-8.067 6.567,-14.594 14.661,-14.594 0,0 -0.059,0 0,0 l 17.414,33.863 c 0.691,1.375 2.332,1.977 3.757,1.356 1.473,-0.645 2.149,-2.36 1.504,-3.836 l -16.113,-37.434 c 0.637,-7.523 6.863,-13.426 14.512,-13.426 2.644,0 5.117,0.727 7.246,1.926 l 6.953,37.844 c 0.281,1.531 1.727,2.578 3.281,2.352 1.524,-0.223 2.598,-1.582 2.485,-3.086 l -4.164,-39.368 c 2.371,-4.179 6.738,-6.953 11.793,-7.253"
         style="fill:#00adef;fill-opacity:1;fill-rule:nonzero;stroke:none"
         id="path98" />
      <path
         d="m 789.707,643.438 c 5.059,0.3 9.426,3.074 11.797,7.253 l -4.168,39.368 c -0.109,1.504 0.965,2.863 2.488,3.086 1.555,0.226 2.996,-0.821 3.281,-2.352 l 6.946,-37.844 c 2.137,-1.199 4.605,-1.926 7.254,-1.926 7.644,0 13.875,5.903 14.508,13.426 l -16.11,37.434 c -0.648,1.476 0.027,3.191 1.5,3.836 1.422,0.621 3.07,0.019 3.766,-1.356 L 838.367,670.5 c 0.071,0 0,0 0,0 8.098,0 14.66,6.527 14.66,14.594 0,3.066 -0.273,5.683 -1.836,7.828 l -27.656,33.133 v 14.953 c 0,1.66 -1.172,3.074 -2.949,3.074 -0.059,0 -13.906,0 -13.906,0 l -12.039,12.066 c -1.262,1.266 -3.098,2.016 -4.934,2.016 -1.836,0 -3.672,-0.75 -4.934,-2.016 l -12.039,-12.066 c 0,0 -13.847,0 -13.906,0 -1.777,0 -2.949,-1.414 -2.949,-3.074 v -14.953 l -27.656,-33.133 c -1.563,-2.145 -1.836,-4.762 -1.836,-7.828 0,-8.067 6.562,-14.594 14.66,-14.594 0,0 -0.067,0 0,0 l 17.398,33.863 c 0.696,1.375 2.348,1.977 3.766,1.356 1.469,-0.645 2.144,-2.36 1.504,-3.836 l -16.113,-37.434 c 0.628,-7.523 6.863,-13.426 14.507,-13.426 2.649,0 5.118,0.727 7.254,1.926 l 6.946,37.844 c 0.285,1.531 1.726,2.578 3.285,2.352 1.519,-0.223 2.594,-1.582 2.484,-3.086 l -4.168,-39.368 c 2.371,-4.179 6.738,-6.953 11.797,-7.253"
         style="fill:#00adef;fill-opacity:1;fill-rule:nonzero;stroke:none"
         id="path100" />
      <path
         d="m 504.695,322.676 c 5.063,0.293 9.426,3.066 11.797,7.246 l -4.168,39.371 c -0.105,1.508 0.969,2.855 2.489,3.086 1.554,0.226 3,-0.82 3.285,-2.352 l 6.945,-37.843 c 2.137,-1.207 4.605,-1.922 7.254,-1.922 7.644,0 13.875,5.902 14.508,13.418 l -16.114,37.445 c -0.64,1.473 0.032,3.18 1.504,3.832 1.422,0.617 3.071,0.012 3.762,-1.363 l 17.406,-33.867 c 0.067,0 0,0 0,0 8.098,0 14.653,6.531 14.653,14.605 0,3.059 -0.266,5.676 -1.836,7.816 l -27.657,33.141 v 14.957 c 0,1.656 -1.171,3.07 -2.949,3.07 -0.058,0 -13.902,0 -13.902,0 l -12.039,12.071 c -1.266,1.261 -3.102,2.015 -4.938,2.015 -1.836,0 -3.672,-0.754 -4.929,-2.015 l -12.043,-12.071 c 0,0 -13.84,0 -13.907,0 -1.769,0 -2.949,-1.414 -2.949,-3.07 v -14.957 l -27.652,-33.141 c -1.567,-2.14 -1.836,-4.757 -1.836,-7.816 0,-8.074 6.559,-14.605 14.656,-14.605 0,0 -0.058,0 0,0 l 17.403,33.867 c 0.695,1.375 2.343,1.98 3.769,1.363 1.469,-0.652 2.145,-2.359 1.504,-3.832 L 462.598,343.68 c 0.629,-7.516 6.859,-13.418 14.5,-13.418 2.652,0 5.121,0.715 7.257,1.922 l 6.95,37.843 c 0.277,1.532 1.722,2.578 3.285,2.352 1.512,-0.231 2.59,-1.578 2.48,-3.086 l -4.172,-39.371 c 2.379,-4.18 6.747,-6.953 11.797,-7.246"
         style="fill:#00adef;fill-opacity:1;fill-rule:nonzero;stroke:none"
         id="path102" />
      <path
         d="m 160.629,1063.28 c -2.613,-0.96 -8.402,-1.42 -11.281,-1.18 -0.785,0.07 -1.465,0.19 -2.035,0.36 l -0.399,0.32 -5.812,28.19 c -1.063,5.18 -5.34,4.79 -4.84,-0.94 l 2.965,-29.06 c -0.782,-1.5 -5.094,-8.63 -9.215,-8.63 -4.121,0 -8.442,7.13 -9.219,8.63 l 2.957,29.06 c 0.508,5.73 -3.777,6.12 -4.832,0.94 l -5.816,-28.19 -0.407,-0.32 c -0.554,-0.17 -1.25,-0.29 -2.031,-0.36 -2.875,-0.24 -8.668,0.22 -11.2773,1.18 3.6563,14.57 12.0583,46.31 14.4373,56.56 0.371,1.57 -0.566,4.25 -3.656,4.38 -0.285,0 -0.941,-0.07 -1.723,-0.38 -3.621,-1.38 -14.0309,-5.32 -17.3122,-6.5 l 2.1875,23.19 c 0.4922,5.75 -4.1328,6.17 -5.1211,0.99 -4.5664,-20.5 -7.125,-48.31 -21.9687,-57.42 1.1523,9.81 10.8398,82.61 12.2226,92.35 0.3711,2.32 0.4024,4.01 2.9922,4.88 1.8477,0.63 3.5039,-0.12 5.1914,-1.81 0.0899,-0.06 24.4103,-22.31 24.4103,-22.31 0.933,-1.19 2.523,-1.75 3.992,-1.31 1.406,0.44 2.535,1.69 2.727,3.19 l 3.367,27.62 c 0.129,1.06 -0.188,2.12 -0.938,2.87 -0.687,0.81 -1.718,1.32 -2.746,1.32 0,0 -1.941,0 -3.816,0 l 1.008,8.55 c 2.742,1.32 10.183,4.7 13.679,5.26 0.028,0 0.254,0.06 0.254,0.06 0.117,0.06 1.438,0.12 1.438,0.12 2.117,0 4.058,-0.62 5.496,-1.75 1.5,-1.18 2.375,-2.75 2.558,-4.87 l 4.254,-39.18 c 0.192,-1.5 1.25,-2.75 2.657,-3.19 1.468,-0.44 3.058,0.12 3.996,1.31 0,0 24.308,22.25 24.406,22.31 1.687,1.69 3.34,2.44 5.191,1.81 2.59,-0.87 2.621,-2.56 2.993,-4.88 1.382,-9.74 11.066,-82.54 12.222,-92.35 -14.84,9.11 -17.402,36.92 -21.969,57.42 -0.988,5.18 -5.617,4.76 -5.121,-0.99 l 2.184,-23.19 c -3.281,1.18 -13.684,5.12 -17.309,6.5 -0.777,0.31 -1.437,0.38 -1.718,0.38 -3.094,-0.13 -4.032,-2.81 -3.661,-4.38 2.379,-10.25 10.782,-41.99 14.438,-56.56"
         style="fill:#deddde;fill-opacity:1;fill-rule:nonzero;stroke:none"
         id="path104" />
      <path
         d="m 339.824,1063.28 c -2.617,-0.96 -8.406,-1.42 -11.289,-1.18 -0.781,0.07 -1.465,0.19 -2.031,0.36 l -0.402,0.32 -5.809,28.19 c -1.066,5.18 -5.344,4.79 -4.844,-0.94 l 2.969,-29.06 c -0.781,-1.5 -5.098,-8.63 -9.219,-8.63 -4.121,0 -8.437,7.13 -9.219,8.63 l 2.965,29.06 c 0.5,5.73 -3.781,6.12 -4.84,0.94 l -5.808,-28.19 -0.406,-0.32 c -0.563,-0.17 -1.25,-0.29 -2.032,-0.36 -2.879,-0.24 -8.668,0.22 -11.285,1.18 3.66,14.57 12.067,46.31 14.442,56.56 0.375,1.57 -0.567,4.25 -3.661,4.38 -0.277,0 -0.937,-0.07 -1.718,-0.38 -3.621,-1.38 -14.028,-5.32 -17.309,-6.5 l 2.188,23.19 c 0.492,5.75 -4.137,6.17 -5.125,0.99 -4.563,-20.5 -7.125,-48.31 -21.965,-57.42 1.152,9.81 10.84,82.61 12.219,92.35 0.371,2.32 0.402,4.01 2.996,4.88 1.839,0.63 3.5,-0.12 5.187,-1.81 0.09,-0.06 24.406,-22.31 24.406,-22.31 0.938,-1.19 2.532,-1.75 4,-1.31 1.407,0.44 2.532,1.69 2.719,3.19 l 3.367,27.62 c 0.129,1.06 -0.183,2.12 -0.933,2.87 -0.688,0.81 -1.719,1.32 -2.746,1.32 0,0 -1.938,0 -3.813,0 l 1,8.55 c 2.75,1.32 10.188,4.7 13.684,5.26 0.027,0 0.254,0.06 0.254,0.06 0.121,0.06 1.433,0.12 1.433,0.12 2.125,0 4.063,-0.62 5.496,-1.75 1.504,-1.18 2.375,-2.75 2.567,-4.87 l 4.254,-39.18 c 0.183,-1.5 1.25,-2.75 2.656,-3.19 1.465,-0.44 3.055,0.12 3.992,1.31 0,0 24.313,22.25 24.41,22.31 1.684,1.69 3.34,2.44 5.192,1.81 2.586,-0.87 2.621,-2.56 2.992,-4.88 1.383,-9.74 11.058,-82.54 12.219,-92.35 -14.84,9.11 -17.403,36.92 -21.965,57.42 -0.992,5.18 -5.617,4.76 -5.121,-0.99 l 2.179,-23.19 c -3.281,1.18 -13.683,5.12 -17.308,6.5 -0.782,0.31 -1.438,0.38 -1.719,0.38 -3.098,-0.13 -4.031,-2.81 -3.656,-4.38 2.379,-10.25 10.773,-41.99 14.437,-56.56"
         style="fill:#deddde;fill-opacity:1;fill-rule:nonzero;stroke:none"
         id="path106" />
      <path
         d="m 160.629,852.051 c -2.613,-0.957 -8.402,-1.426 -11.281,-1.18 -0.785,0.067 -1.465,0.184 -2.035,0.363 l -0.399,0.313 -5.812,28.187 c -1.063,5.188 -5.34,4.797 -4.84,-0.933 l 2.965,-29.067 c -0.782,-1.492 -5.094,-8.621 -9.215,-8.621 -4.121,0 -8.442,7.129 -9.219,8.621 l 2.957,29.067 c 0.508,5.73 -3.777,6.121 -4.832,0.933 l -5.816,-28.187 -0.407,-0.313 c -0.554,-0.179 -1.25,-0.296 -2.031,-0.363 -2.875,-0.246 -8.668,0.223 -11.2773,1.18 3.6563,14.57 12.0583,46.308 14.4373,56.562 0.371,1.563 -0.566,4.246 -3.656,4.375 -0.285,0 -0.941,-0.066 -1.723,-0.383 -3.621,-1.371 -14.0309,-5.308 -17.3122,-6.492 l 2.1875,23.184 c 0.4922,5.754 -4.1328,6.176 -5.1211,0.996 -4.5664,-20.496 -7.125,-48.313 -21.9687,-57.422 1.1523,9.805 10.8398,82.606 12.2226,92.352 0.3711,2.316 0.4024,4.004 2.9922,4.879 1.8477,0.625 3.5039,-0.122 5.1914,-1.809 0.0899,-0.066 24.4103,-22.313 24.4103,-22.313 0.933,-1.183 2.523,-1.753 3.992,-1.312 1.406,0.437 2.535,1.687 2.727,3.187 l 3.367,27.622 c 0.129,1.066 -0.188,2.125 -0.938,2.871 -0.687,0.816 -1.718,1.32 -2.746,1.32 0,0 -1.941,0 -3.816,0 l 1.008,8.555 c 2.742,1.32 10.183,4.699 13.679,5.254 0.028,0 0.254,0.07 0.254,0.07 0.117,0.051 1.438,0.117 1.438,0.117 2.117,0 4.058,-0.625 5.496,-1.75 1.5,-1.184 2.375,-2.754 2.558,-4.871 l 4.254,-39.188 c 0.192,-1.5 1.25,-2.75 2.657,-3.187 1.468,-0.441 3.058,0.129 3.996,1.312 0,0 24.308,22.247 24.406,22.313 1.687,1.687 3.34,2.434 5.191,1.809 2.59,-0.875 2.621,-2.563 2.993,-4.879 1.382,-9.746 11.066,-82.547 12.222,-92.352 -14.84,9.109 -17.402,36.926 -21.969,57.422 -0.988,5.18 -5.617,4.758 -5.121,-0.996 l 2.184,-23.184 c -3.281,1.184 -13.684,5.121 -17.309,6.492 -0.777,0.317 -1.437,0.383 -1.718,0.383 -3.094,-0.129 -4.032,-2.812 -3.661,-4.375 2.379,-10.254 10.782,-41.992 14.438,-56.562"
         style="fill:#deddde;fill-opacity:1;fill-rule:nonzero;stroke:none"
         id="path108" />
      <path
         d="m 339.824,852.051 c -2.617,-0.957 -8.406,-1.426 -11.289,-1.18 -0.781,0.067 -1.465,0.184 -2.031,0.363 l -0.402,0.313 -5.809,28.187 c -1.066,5.188 -5.344,4.797 -4.844,-0.933 l 2.969,-29.067 c -0.781,-1.492 -5.098,-8.621 -9.219,-8.621 -4.121,0 -8.437,7.129 -9.219,8.621 l 2.965,29.067 c 0.5,5.73 -3.781,6.121 -4.84,0.933 l -5.808,-28.187 -0.406,-0.313 c -0.563,-0.179 -1.25,-0.296 -2.032,-0.363 -2.879,-0.246 -8.668,0.223 -11.285,1.18 3.66,14.57 12.067,46.308 14.442,56.562 0.375,1.563 -0.567,4.246 -3.661,4.375 -0.277,0 -0.937,-0.066 -1.718,-0.383 -3.621,-1.371 -14.028,-5.308 -17.309,-6.492 l 2.188,23.184 c 0.492,5.754 -4.137,6.176 -5.125,0.996 -4.563,-20.496 -7.125,-48.313 -21.965,-57.422 1.152,9.805 10.84,82.606 12.219,92.352 0.371,2.316 0.402,4.004 2.996,4.879 1.839,0.625 3.5,-0.122 5.187,-1.809 0.09,-0.066 24.406,-22.313 24.406,-22.313 0.938,-1.183 2.532,-1.753 4,-1.312 1.407,0.437 2.532,1.687 2.719,3.187 l 3.367,27.622 c 0.129,1.066 -0.183,2.125 -0.933,2.871 -0.688,0.816 -1.719,1.32 -2.746,1.32 0,0 -1.938,0 -3.813,0 l 1,8.555 c 2.75,1.32 10.188,4.699 13.684,5.254 0.027,0 0.254,0.07 0.254,0.07 0.121,0.051 1.433,0.117 1.433,0.117 2.125,0 4.063,-0.625 5.496,-1.75 1.504,-1.184 2.375,-2.754 2.567,-4.871 l 4.254,-39.188 c 0.183,-1.5 1.25,-2.75 2.656,-3.187 1.465,-0.441 3.055,0.129 3.992,1.312 0,0 24.313,22.247 24.41,22.313 1.684,1.687 3.34,2.434 5.192,1.809 2.586,-0.875 2.621,-2.563 2.992,-4.879 1.383,-9.746 11.058,-82.547 12.219,-92.352 -14.84,9.109 -17.403,36.926 -21.965,57.422 -0.992,5.18 -5.617,4.758 -5.121,-0.996 l 2.179,-23.184 c -3.281,1.184 -13.683,5.121 -17.308,6.492 -0.782,0.317 -1.438,0.383 -1.719,0.383 -3.098,-0.129 -4.031,-2.812 -3.656,-4.375 2.379,-10.254 10.773,-41.992 14.437,-56.562"
         style="fill:#deddde;fill-opacity:1;fill-rule:nonzero;stroke:none"
         id="path110" />
      <path
         d="m 730.691,1063.28 c -2.605,-0.96 -8.394,-1.42 -11.277,-1.18 -0.781,0.07 -1.469,0.19 -2.031,0.36 l -0.403,0.32 -5.812,28.19 c -1.063,5.18 -5.344,4.79 -4.84,-0.94 l 2.965,-29.06 c -0.781,-1.5 -5.098,-8.63 -9.219,-8.63 -4.121,0 -8.437,7.13 -9.219,8.63 l 2.961,29.06 c 0.504,5.73 -3.777,6.12 -4.836,0.94 l -5.816,-28.19 -0.398,-0.32 c -0.563,-0.17 -1.25,-0.29 -2.036,-0.36 -2.878,-0.24 -8.671,0.22 -11.277,1.18 3.652,14.57 12.063,46.31 14.434,56.56 0.371,1.57 -0.567,4.25 -3.653,4.38 -0.285,0 -0.937,-0.07 -1.718,-0.38 -3.625,-1.38 -14.036,-5.32 -17.317,-6.5 l 2.192,23.19 c 0.488,5.75 -4.137,6.17 -5.129,0.99 -4.563,-20.5 -7.121,-48.31 -21.961,-57.42 1.148,9.81 10.84,82.61 12.215,92.35 0.371,2.32 0.406,4.01 3,4.88 1.843,0.63 3.5,-0.12 5.183,-1.81 0.098,-0.06 24.41,-22.31 24.41,-22.31 0.938,-1.19 2.524,-1.75 3.996,-1.31 1.411,0.44 2.532,1.69 2.723,3.19 l 3.371,27.62 c 0.125,1.06 -0.187,2.12 -0.933,2.87 -0.696,0.81 -1.719,1.32 -2.75,1.32 0,0 -1.942,0 -3.817,0 l 1.004,8.55 c 2.746,1.32 10.188,4.7 13.688,5.26 0.027,0 0.25,0.06 0.25,0.06 0.121,0.06 1.433,0.12 1.433,0.12 2.121,0 4.067,-0.62 5.5,-1.75 1.496,-1.18 2.375,-2.75 2.563,-4.87 l 4.246,-39.18 c 0.191,-1.5 1.25,-2.75 2.656,-3.19 1.477,-0.44 3.066,0.12 4.004,1.31 0,0 24.305,22.25 24.402,22.31 1.692,1.69 3.34,2.44 5.188,1.81 2.594,-0.87 2.629,-2.56 3,-4.88 1.375,-9.74 11.062,-82.54 12.215,-92.35 -14.832,9.11 -17.403,36.92 -21.961,57.42 -0.989,5.18 -5.617,4.76 -5.129,-0.99 l 2.187,-23.19 c -3.281,1.18 -13.679,5.12 -17.308,6.5 -0.782,0.31 -1.442,0.38 -1.719,0.38 -3.094,-0.13 -4.027,-2.81 -3.656,-4.38 2.371,-10.25 10.781,-41.99 14.429,-56.56"
         style="fill:#deddde;fill-opacity:1;fill-rule:nonzero;stroke:none"
         id="path112" />
      <path
         d="m 909.887,1063.28 c -2.614,-0.96 -8.403,-1.42 -11.285,-1.18 -0.782,0.07 -1.461,0.19 -2.032,0.36 l -0.398,0.32 -5.813,28.19 c -1.062,5.18 -5.339,4.79 -4.843,-0.94 l 2.968,-29.06 c -0.781,-1.5 -5.093,-8.63 -9.218,-8.63 -4.121,0 -8.438,7.13 -9.215,8.63 l 2.957,29.06 c 0.508,5.73 -3.781,6.12 -4.832,0.94 l -5.817,-28.19 -0.406,-0.32 c -0.558,-0.17 -1.25,-0.29 -2.031,-0.36 -2.875,-0.24 -8.668,0.22 -11.281,1.18 3.66,14.57 12.062,46.31 14.441,56.56 0.371,1.57 -0.566,4.25 -3.656,4.38 -0.285,0 -0.942,-0.07 -1.723,-0.38 -3.621,-1.38 -14.031,-5.32 -17.312,-6.5 l 2.187,23.19 c 0.492,5.75 -4.133,6.17 -5.121,0.99 -4.566,-20.5 -7.125,-48.31 -21.969,-57.42 1.153,9.81 10.84,82.61 12.223,92.35 0.371,2.32 0.402,4.01 2.992,4.88 1.848,0.63 3.508,-0.12 5.192,-1.81 0.089,-0.06 24.41,-22.31 24.41,-22.31 0.933,-1.19 2.523,-1.75 3.992,-1.31 1.406,0.44 2.535,1.69 2.723,3.19 l 3.371,27.62 c 0.125,1.06 -0.188,2.12 -0.938,2.87 -0.687,0.81 -1.719,1.32 -2.742,1.32 0,0 -1.945,0 -3.82,0 l 1.004,8.55 c 2.746,1.32 10.187,4.7 13.683,5.26 0.027,0 0.254,0.06 0.254,0.06 0.117,0.06 1.434,0.12 1.434,0.12 2.121,0 4.062,-0.62 5.5,-1.75 1.5,-1.18 2.375,-2.75 2.558,-4.87 l 4.254,-39.18 c 0.188,-1.5 1.25,-2.75 2.656,-3.19 1.469,-0.44 3.063,0.12 3.996,1.31 0,0 24.309,22.25 24.407,22.31 1.687,1.69 3.34,2.44 5.191,1.81 2.594,-0.87 2.621,-2.56 2.992,-4.88 1.383,-9.74 11.067,-82.54 12.223,-92.35 -14.84,9.11 -17.402,36.92 -21.969,57.42 -0.984,5.18 -5.613,4.76 -5.121,-0.99 l 2.184,-23.19 c -3.285,1.18 -13.684,5.12 -17.309,6.5 -0.777,0.31 -1.437,0.38 -1.719,0.38 -3.093,-0.13 -4.031,-2.81 -3.66,-4.38 2.379,-10.25 10.781,-41.99 14.438,-56.56"
         style="fill:#deddde;fill-opacity:1;fill-rule:nonzero;stroke:none"
         id="path114" />
      <path
         d="m 730.691,852.051 c -2.605,-0.957 -8.394,-1.426 -11.277,-1.18 -0.781,0.067 -1.469,0.184 -2.031,0.363 l -0.403,0.313 -5.812,28.187 c -1.063,5.188 -5.344,4.797 -4.84,-0.933 l 2.965,-29.067 c -0.781,-1.492 -5.098,-8.621 -9.219,-8.621 -4.121,0 -8.437,7.129 -9.219,8.621 l 2.961,29.067 c 0.504,5.73 -3.777,6.121 -4.836,0.933 l -5.816,-28.187 -0.398,-0.313 c -0.563,-0.179 -1.25,-0.296 -2.036,-0.363 -2.878,-0.246 -8.671,0.223 -11.277,1.18 3.652,14.57 12.063,46.308 14.434,56.562 0.371,1.563 -0.567,4.246 -3.653,4.375 -0.285,0 -0.937,-0.066 -1.718,-0.383 -3.625,-1.371 -14.036,-5.308 -17.317,-6.492 l 2.192,23.184 c 0.488,5.754 -4.137,6.176 -5.129,0.996 -4.563,-20.496 -7.121,-48.313 -21.961,-57.422 1.148,9.805 10.84,82.606 12.215,92.352 0.371,2.316 0.406,4.004 3,4.879 1.843,0.625 3.5,-0.122 5.183,-1.809 0.098,-0.066 24.41,-22.313 24.41,-22.313 0.938,-1.183 2.524,-1.753 3.996,-1.312 1.411,0.437 2.532,1.687 2.723,3.187 l 3.371,27.622 c 0.125,1.066 -0.187,2.125 -0.933,2.871 -0.696,0.816 -1.719,1.32 -2.75,1.32 0,0 -1.942,0 -3.817,0 l 1.004,8.555 c 2.746,1.32 10.188,4.699 13.688,5.254 0.027,0 0.25,0.07 0.25,0.07 0.121,0.051 1.433,0.117 1.433,0.117 2.121,0 4.067,-0.625 5.5,-1.75 1.496,-1.184 2.375,-2.754 2.563,-4.871 l 4.246,-39.188 c 0.191,-1.5 1.25,-2.75 2.656,-3.187 1.477,-0.441 3.066,0.129 4.004,1.312 0,0 24.305,22.247 24.402,22.313 1.692,1.687 3.34,2.434 5.188,1.809 2.594,-0.875 2.629,-2.563 3,-4.879 1.375,-9.746 11.062,-82.547 12.215,-92.352 -14.832,9.109 -17.403,36.926 -21.961,57.422 -0.989,5.18 -5.617,4.758 -5.129,-0.996 l 2.187,-23.184 c -3.281,1.184 -13.679,5.121 -17.308,6.492 -0.782,0.317 -1.442,0.383 -1.719,0.383 -3.094,-0.129 -4.027,-2.812 -3.656,-4.375 2.371,-10.254 10.781,-41.992 14.429,-56.562"
         style="fill:#deddde;fill-opacity:1;fill-rule:nonzero;stroke:none"
         id="path116" />
      <path
         d="m 909.887,852.051 c -2.614,-0.957 -8.403,-1.426 -11.285,-1.18 -0.782,0.067 -1.461,0.184 -2.032,0.363 l -0.398,0.313 -5.813,28.187 c -1.062,5.188 -5.339,4.797 -4.843,-0.933 l 2.968,-29.067 c -0.781,-1.492 -5.093,-8.621 -9.218,-8.621 -4.121,0 -8.438,7.129 -9.215,8.621 l 2.957,29.067 c 0.508,5.73 -3.781,6.121 -4.832,0.933 l -5.817,-28.187 -0.406,-0.313 c -0.558,-0.179 -1.25,-0.296 -2.031,-0.363 -2.875,-0.246 -8.668,0.223 -11.281,1.18 3.66,14.57 12.062,46.308 14.441,56.562 0.371,1.563 -0.566,4.246 -3.656,4.375 -0.285,0 -0.942,-0.066 -1.723,-0.383 -3.621,-1.371 -14.031,-5.308 -17.312,-6.492 l 2.187,23.184 c 0.492,5.754 -4.133,6.176 -5.121,0.996 -4.566,-20.496 -7.125,-48.313 -21.969,-57.422 1.153,9.805 10.84,82.606 12.223,92.352 0.371,2.316 0.402,4.004 2.992,4.879 1.848,0.625 3.508,-0.122 5.192,-1.809 0.089,-0.066 24.41,-22.313 24.41,-22.313 0.933,-1.183 2.523,-1.753 3.992,-1.312 1.406,0.437 2.535,1.687 2.723,3.187 l 3.371,27.622 c 0.125,1.066 -0.188,2.125 -0.938,2.871 -0.687,0.816 -1.719,1.32 -2.742,1.32 0,0 -1.945,0 -3.82,0 l 1.004,8.555 c 2.746,1.32 10.187,4.699 13.683,5.254 0.027,0 0.254,0.07 0.254,0.07 0.117,0.051 1.434,0.117 1.434,0.117 2.121,0 4.062,-0.625 5.5,-1.75 1.5,-1.184 2.375,-2.754 2.558,-4.871 l 4.254,-39.188 c 0.188,-1.5 1.25,-2.75 2.656,-3.187 1.469,-0.441 3.063,0.129 3.996,1.312 0,0 24.309,22.247 24.407,22.313 1.687,1.687 3.34,2.434 5.191,1.809 2.594,-0.875 2.621,-2.563 2.992,-4.879 1.383,-9.746 11.067,-82.547 12.223,-92.352 -14.84,9.109 -17.402,36.926 -21.969,57.422 -0.984,5.18 -5.613,4.758 -5.121,-0.996 l 2.184,-23.184 c -3.285,1.184 -13.684,5.121 -17.309,6.492 -0.777,0.317 -1.437,0.383 -1.719,0.383 -3.093,-0.129 -4.031,-2.812 -3.66,-4.375 2.379,-10.254 10.781,-41.992 14.438,-56.562"
         style="fill:#deddde;fill-opacity:1;fill-rule:nonzero;stroke:none"
         id="path118" />
      <path
         d="m 160.629,421.738 c -2.613,-0.957 -8.402,-1.425 -11.281,-1.183 -0.785,0.07 -1.465,0.187 -2.035,0.371 l -0.399,0.312 -5.812,28.192 c -1.063,5.179 -5.34,4.789 -4.84,-0.938 l 2.965,-29.062 c -0.782,-1.5 -5.094,-8.629 -9.215,-8.629 -4.121,0 -8.442,7.129 -9.219,8.629 l 2.957,29.062 c 0.508,5.727 -3.777,6.117 -4.832,0.938 l -5.816,-28.192 -0.407,-0.312 c -0.554,-0.184 -1.25,-0.301 -2.031,-0.371 -2.875,-0.242 -8.668,0.226 -11.2773,1.183 3.6563,14.571 12.0583,46.309 14.4373,56.563 0.371,1.562 -0.566,4.25 -3.656,4.375 -0.285,0 -0.941,-0.071 -1.723,-0.379 -3.621,-1.371 -14.0309,-5.317 -17.3122,-6.496 l 2.1875,23.183 c 0.4922,5.75 -4.1328,6.184 -5.1211,0.996 -4.5664,-20.5 -7.125,-48.304 -21.9687,-57.421 1.1523,9.804 10.8398,82.613 12.2226,92.355 0.3711,2.313 0.4024,4.004 2.9922,4.883 1.8477,0.625 3.5039,-0.129 5.1914,-1.813 0.0899,-0.062 24.4103,-22.308 24.4103,-22.308 0.933,-1.196 2.523,-1.754 3.992,-1.321 1.406,0.442 2.535,1.692 2.727,3.196 l 3.367,27.617 c 0.129,1.062 -0.188,2.129 -0.938,2.871 -0.687,0.816 -1.718,1.316 -2.746,1.316 0,0 -1.941,0 -3.816,0 l 1.008,8.555 c 2.742,1.317 10.183,4.695 13.679,5.254 0.028,0 0.254,0.066 0.254,0.066 0.117,0.063 1.438,0.125 1.438,0.125 2.117,0 4.058,-0.625 5.496,-1.753 1.5,-1.18 2.375,-2.754 2.558,-4.875 l 4.254,-39.176 c 0.192,-1.504 1.25,-2.754 2.657,-3.196 1.468,-0.433 3.058,0.125 3.996,1.321 0,0 24.308,22.246 24.406,22.308 1.687,1.684 3.34,2.438 5.191,1.813 2.59,-0.879 2.621,-2.57 2.993,-4.883 1.382,-9.742 11.066,-82.551 12.222,-92.355 -14.84,9.117 -17.402,36.921 -21.969,57.421 -0.988,5.188 -5.617,4.754 -5.121,-0.996 l 2.184,-23.183 c -3.281,1.179 -13.684,5.125 -17.309,6.496 -0.777,0.308 -1.437,0.379 -1.718,0.379 -3.094,-0.125 -4.032,-2.813 -3.661,-4.375 2.379,-10.254 10.782,-41.992 14.438,-56.563"
         style="fill:#deddde;fill-opacity:1;fill-rule:nonzero;stroke:none"
         id="path120" />
      <path
         d="m 339.824,421.738 c -2.617,-0.957 -8.406,-1.425 -11.289,-1.183 -0.781,0.07 -1.465,0.187 -2.031,0.371 l -0.402,0.312 -5.809,28.192 c -1.066,5.179 -5.344,4.789 -4.844,-0.938 l 2.969,-29.062 c -0.781,-1.5 -5.098,-8.629 -9.219,-8.629 -4.121,0 -8.437,7.129 -9.219,8.629 l 2.965,29.062 c 0.5,5.727 -3.781,6.117 -4.84,0.938 l -5.808,-28.192 -0.406,-0.312 c -0.563,-0.184 -1.25,-0.301 -2.032,-0.371 -2.879,-0.242 -8.668,0.226 -11.285,1.183 3.66,14.571 12.067,46.309 14.442,56.563 0.375,1.562 -0.567,4.25 -3.661,4.375 -0.277,0 -0.937,-0.071 -1.718,-0.379 -3.621,-1.371 -14.028,-5.317 -17.309,-6.496 l 2.188,23.183 c 0.492,5.75 -4.137,6.184 -5.125,0.996 -4.563,-20.5 -7.125,-48.304 -21.965,-57.421 1.152,9.804 10.84,82.613 12.219,92.355 0.371,2.313 0.402,4.004 2.996,4.883 1.839,0.625 3.5,-0.129 5.187,-1.813 0.09,-0.062 24.406,-22.308 24.406,-22.308 0.938,-1.196 2.532,-1.754 4,-1.321 1.407,0.442 2.532,1.692 2.719,3.196 l 3.367,27.617 c 0.129,1.062 -0.183,2.129 -0.933,2.871 -0.688,0.816 -1.719,1.316 -2.746,1.316 0,0 -1.938,0 -3.813,0 l 1,8.555 c 2.75,1.317 10.188,4.695 13.684,5.254 0.027,0 0.254,0.066 0.254,0.066 0.121,0.063 1.433,0.125 1.433,0.125 2.125,0 4.063,-0.625 5.496,-1.753 1.504,-1.18 2.375,-2.754 2.567,-4.875 l 4.254,-39.176 c 0.183,-1.504 1.25,-2.754 2.656,-3.196 1.465,-0.433 3.055,0.125 3.992,1.321 0,0 24.313,22.246 24.41,22.308 1.684,1.684 3.34,2.438 5.192,1.813 2.586,-0.879 2.621,-2.57 2.992,-4.883 1.383,-9.742 11.058,-82.551 12.219,-92.355 -14.84,9.117 -17.403,36.921 -21.965,57.421 -0.992,5.188 -5.617,4.754 -5.121,-0.996 l 2.179,-23.183 c -3.281,1.179 -13.683,5.125 -17.308,6.496 -0.782,0.308 -1.438,0.379 -1.719,0.379 -3.098,-0.125 -4.031,-2.813 -3.656,-4.375 2.379,-10.254 10.773,-41.992 14.437,-56.563"
         style="fill:#deddde;fill-opacity:1;fill-rule:nonzero;stroke:none"
         id="path122" />
      <path
         d="m 160.629,210.508 c -2.613,-0.957 -8.402,-1.426 -11.281,-1.184 -0.785,0.071 -1.465,0.188 -2.035,0.371 l -0.399,0.313 -5.812,28.191 c -1.063,5.188 -5.34,4.801 -4.84,-0.937 l 2.965,-29.063 c -0.782,-1.5 -5.094,-8.629 -9.215,-8.629 -4.121,0 -8.442,7.129 -9.219,8.629 l 2.957,29.063 c 0.508,5.738 -3.777,6.125 -4.832,0.937 l -5.816,-28.191 -0.407,-0.313 c -0.554,-0.183 -1.25,-0.3 -2.031,-0.371 -2.875,-0.242 -8.668,0.227 -11.2773,1.184 3.6563,14.57 12.0583,46.308 14.4373,56.562 0.371,1.563 -0.566,4.246 -3.656,4.375 -0.285,0 -0.941,-0.066 -1.723,-0.382 -3.621,-1.368 -14.0309,-5.309 -17.3122,-6.493 l 2.1875,23.184 c 0.4922,5.754 -4.1328,6.18 -5.1211,0.996 -4.5664,-20.496 -7.125,-48.305 -21.9687,-57.422 1.1523,9.805 10.8398,82.613 12.2226,92.352 0.3711,2.316 0.4024,4.004 2.9922,4.883 1.8477,0.625 3.5039,-0.125 5.1914,-1.809 0.0899,-0.066 24.4103,-22.313 24.4103,-22.313 0.933,-1.187 2.523,-1.75 3.992,-1.316 1.406,0.438 2.535,1.688 2.727,3.191 l 3.367,27.618 c 0.129,1.066 -0.188,2.129 -0.938,2.871 -0.687,0.824 -1.718,1.32 -2.746,1.32 0,0 -1.941,0 -3.816,0 l 1.008,8.555 c 2.742,1.32 10.183,4.699 13.679,5.254 0.028,0 0.254,0.07 0.254,0.07 0.117,0.055 1.438,0.121 1.438,0.121 2.117,0 4.058,-0.625 5.496,-1.754 1.5,-1.183 2.375,-2.754 2.558,-4.871 l 4.254,-39.184 c 0.192,-1.503 1.25,-2.753 2.657,-3.191 1.468,-0.434 3.058,0.129 3.996,1.316 0,0 24.308,22.247 24.406,22.313 1.687,1.684 3.34,2.434 5.191,1.809 2.59,-0.879 2.621,-2.567 2.993,-4.883 1.382,-9.739 11.066,-82.547 12.222,-92.352 -14.84,9.117 -17.402,36.926 -21.969,57.422 -0.988,5.184 -5.617,4.758 -5.121,-0.996 l 2.184,-23.184 c -3.281,1.184 -13.684,5.125 -17.309,6.493 -0.777,0.316 -1.437,0.382 -1.718,0.382 -3.094,-0.129 -4.032,-2.812 -3.661,-4.375 2.379,-10.254 10.782,-41.992 14.438,-56.562"
         style="fill:#deddde;fill-opacity:1;fill-rule:nonzero;stroke:none"
         id="path124" />
      <path
         d="m 339.824,210.508 c -2.617,-0.957 -8.406,-1.426 -11.289,-1.184 -0.781,0.071 -1.465,0.188 -2.031,0.371 l -0.402,0.313 -5.809,28.191 c -1.066,5.188 -5.344,4.801 -4.844,-0.937 l 2.969,-29.063 c -0.781,-1.5 -5.098,-8.629 -9.219,-8.629 -4.121,0 -8.437,7.129 -9.219,8.629 l 2.965,29.063 c 0.5,5.738 -3.781,6.125 -4.84,0.937 l -5.808,-28.191 -0.406,-0.313 c -0.563,-0.183 -1.25,-0.3 -2.032,-0.371 -2.879,-0.242 -8.668,0.227 -11.285,1.184 3.66,14.57 12.067,46.308 14.442,56.562 0.375,1.563 -0.567,4.246 -3.661,4.375 -0.277,0 -0.937,-0.066 -1.718,-0.382 -3.621,-1.368 -14.028,-5.309 -17.309,-6.493 l 2.188,23.184 c 0.492,5.754 -4.137,6.18 -5.125,0.996 -4.563,-20.496 -7.125,-48.305 -21.965,-57.422 1.152,9.805 10.84,82.613 12.219,92.352 0.371,2.316 0.402,4.004 2.996,4.883 1.839,0.625 3.5,-0.125 5.187,-1.809 0.09,-0.066 24.406,-22.313 24.406,-22.313 0.938,-1.187 2.532,-1.75 4,-1.316 1.407,0.438 2.532,1.688 2.719,3.191 l 3.367,27.618 c 0.129,1.066 -0.183,2.129 -0.933,2.871 -0.688,0.824 -1.719,1.32 -2.746,1.32 0,0 -1.938,0 -3.813,0 l 1,8.555 c 2.75,1.32 10.188,4.699 13.684,5.254 0.027,0 0.254,0.07 0.254,0.07 0.121,0.055 1.433,0.121 1.433,0.121 2.125,0 4.063,-0.625 5.496,-1.754 1.504,-1.183 2.375,-2.754 2.567,-4.871 l 4.254,-39.184 c 0.183,-1.503 1.25,-2.753 2.656,-3.191 1.465,-0.434 3.055,0.129 3.992,1.316 0,0 24.313,22.247 24.41,22.313 1.684,1.684 3.34,2.434 5.192,1.809 2.586,-0.879 2.621,-2.567 2.992,-4.883 1.383,-9.739 11.058,-82.547 12.219,-92.352 -14.84,9.117 -17.403,36.926 -21.965,57.422 -0.992,5.184 -5.617,4.758 -5.121,-0.996 l 2.179,-23.184 c -3.281,1.184 -13.683,5.125 -17.308,6.493 -0.782,0.316 -1.438,0.382 -1.719,0.382 -3.098,-0.129 -4.031,-2.812 -3.656,-4.375 2.379,-10.254 10.773,-41.992 14.437,-56.562"
         style="fill:#deddde;fill-opacity:1;fill-rule:nonzero;stroke:none"
         id="path126" />
      <path
         d="m 730.691,421.738 c -2.605,-0.957 -8.394,-1.425 -11.277,-1.183 -0.781,0.07 -1.469,0.187 -2.031,0.371 l -0.403,0.312 -5.812,28.192 c -1.063,5.179 -5.344,4.789 -4.84,-0.938 l 2.965,-29.062 c -0.781,-1.5 -5.098,-8.629 -9.219,-8.629 -4.121,0 -8.437,7.129 -9.219,8.629 l 2.961,29.062 c 0.504,5.727 -3.777,6.117 -4.836,0.938 l -5.816,-28.192 -0.398,-0.312 c -0.563,-0.184 -1.25,-0.301 -2.036,-0.371 -2.878,-0.242 -8.671,0.226 -11.277,1.183 3.652,14.571 12.063,46.309 14.434,56.563 0.371,1.562 -0.567,4.25 -3.653,4.375 -0.285,0 -0.937,-0.071 -1.718,-0.379 -3.625,-1.371 -14.036,-5.317 -17.317,-6.496 l 2.192,23.183 c 0.488,5.75 -4.137,6.184 -5.129,0.996 -4.563,-20.5 -7.121,-48.304 -21.961,-57.421 1.148,9.804 10.84,82.613 12.215,92.355 0.371,2.313 0.406,4.004 3,4.883 1.843,0.625 3.5,-0.129 5.183,-1.813 0.098,-0.062 24.41,-22.308 24.41,-22.308 0.938,-1.196 2.524,-1.754 3.996,-1.321 1.411,0.442 2.532,1.692 2.723,3.196 l 3.371,27.617 c 0.125,1.062 -0.187,2.129 -0.933,2.871 -0.696,0.816 -1.719,1.316 -2.75,1.316 0,0 -1.942,0 -3.817,0 l 1.004,8.555 c 2.746,1.317 10.188,4.695 13.688,5.254 0.027,0 0.25,0.066 0.25,0.066 0.121,0.063 1.433,0.125 1.433,0.125 2.121,0 4.067,-0.625 5.5,-1.753 1.496,-1.18 2.375,-2.754 2.563,-4.875 l 4.246,-39.176 c 0.191,-1.504 1.25,-2.754 2.656,-3.196 1.477,-0.433 3.066,0.125 4.004,1.321 0,0 24.305,22.246 24.402,22.308 1.692,1.684 3.34,2.438 5.188,1.813 2.594,-0.879 2.629,-2.57 3,-4.883 1.375,-9.742 11.062,-82.551 12.215,-92.355 -14.832,9.117 -17.403,36.921 -21.961,57.421 -0.989,5.188 -5.617,4.754 -5.129,-0.996 l 2.187,-23.183 c -3.281,1.179 -13.679,5.125 -17.308,6.496 -0.782,0.308 -1.442,0.379 -1.719,0.379 -3.094,-0.125 -4.027,-2.813 -3.656,-4.375 2.371,-10.254 10.781,-41.992 14.429,-56.563"
         style="fill:#deddde;fill-opacity:1;fill-rule:nonzero;stroke:none"
         id="path128" />
      <path
         d="m 909.887,421.738 c -2.614,-0.957 -8.403,-1.425 -11.285,-1.183 -0.782,0.07 -1.461,0.187 -2.032,0.371 l -0.398,0.312 -5.813,28.192 c -1.062,5.179 -5.339,4.789 -4.843,-0.938 l 2.968,-29.062 c -0.781,-1.5 -5.093,-8.629 -9.218,-8.629 -4.121,0 -8.438,7.129 -9.215,8.629 l 2.957,29.062 c 0.508,5.727 -3.781,6.117 -4.832,0.938 l -5.817,-28.192 -0.406,-0.312 c -0.558,-0.184 -1.25,-0.301 -2.031,-0.371 -2.875,-0.242 -8.668,0.226 -11.281,1.183 3.66,14.571 12.062,46.309 14.441,56.563 0.371,1.562 -0.566,4.25 -3.656,4.375 -0.285,0 -0.942,-0.071 -1.723,-0.379 -3.621,-1.371 -14.031,-5.317 -17.312,-6.496 l 2.187,23.183 c 0.492,5.75 -4.133,6.184 -5.121,0.996 -4.566,-20.5 -7.125,-48.304 -21.969,-57.421 1.153,9.804 10.84,82.613 12.223,92.355 0.371,2.313 0.402,4.004 2.992,4.883 1.848,0.625 3.508,-0.129 5.192,-1.813 0.089,-0.062 24.41,-22.308 24.41,-22.308 0.933,-1.196 2.523,-1.754 3.992,-1.321 1.406,0.442 2.535,1.692 2.723,3.196 l 3.371,27.617 c 0.125,1.062 -0.188,2.129 -0.938,2.871 -0.687,0.816 -1.719,1.316 -2.742,1.316 0,0 -1.945,0 -3.82,0 l 1.004,8.555 c 2.746,1.317 10.187,4.695 13.683,5.254 0.027,0 0.254,0.066 0.254,0.066 0.117,0.063 1.434,0.125 1.434,0.125 2.121,0 4.062,-0.625 5.5,-1.753 1.5,-1.18 2.375,-2.754 2.558,-4.875 l 4.254,-39.176 c 0.188,-1.504 1.25,-2.754 2.656,-3.196 1.469,-0.433 3.063,0.125 3.996,1.321 0,0 24.309,22.246 24.407,22.308 1.687,1.684 3.34,2.438 5.191,1.813 2.594,-0.879 2.621,-2.57 2.992,-4.883 1.383,-9.742 11.067,-82.551 12.223,-92.355 -14.84,9.117 -17.402,36.921 -21.969,57.421 -0.984,5.188 -5.613,4.754 -5.121,-0.996 l 2.184,-23.183 c -3.285,1.179 -13.684,5.125 -17.309,6.496 -0.777,0.308 -1.437,0.379 -1.719,0.379 -3.093,-0.125 -4.031,-2.813 -3.66,-4.375 2.379,-10.254 10.781,-41.992 14.438,-56.563"
         style="fill:#deddde;fill-opacity:1;fill-rule:nonzero;stroke:none"
         id="path130" />
      <path
         d="m 730.691,210.508 c -2.605,-0.957 -8.394,-1.426 -11.277,-1.184 -0.781,0.071 -1.469,0.188 -2.031,0.371 l -0.403,0.313 -5.812,28.191 c -1.063,5.188 -5.344,4.801 -4.84,-0.937 l 2.965,-29.063 c -0.781,-1.5 -5.098,-8.629 -9.219,-8.629 -4.121,0 -8.437,7.129 -9.219,8.629 l 2.961,29.063 c 0.504,5.738 -3.777,6.125 -4.836,0.937 l -5.816,-28.191 -0.398,-0.313 c -0.563,-0.183 -1.25,-0.3 -2.036,-0.371 -2.878,-0.242 -8.671,0.227 -11.277,1.184 3.652,14.57 12.063,46.308 14.434,56.562 0.371,1.563 -0.567,4.246 -3.653,4.375 -0.285,0 -0.937,-0.066 -1.718,-0.382 -3.625,-1.368 -14.036,-5.309 -17.317,-6.493 l 2.192,23.184 c 0.488,5.754 -4.137,6.18 -5.129,0.996 -4.563,-20.496 -7.121,-48.305 -21.961,-57.422 1.148,9.805 10.84,82.613 12.215,92.352 0.371,2.316 0.406,4.004 3,4.883 1.843,0.625 3.5,-0.125 5.183,-1.809 0.098,-0.066 24.41,-22.313 24.41,-22.313 0.938,-1.187 2.524,-1.75 3.996,-1.316 1.411,0.438 2.532,1.688 2.723,3.191 l 3.371,27.618 c 0.125,1.066 -0.187,2.129 -0.933,2.871 -0.696,0.824 -1.719,1.32 -2.75,1.32 0,0 -1.942,0 -3.817,0 l 1.004,8.555 c 2.746,1.32 10.188,4.699 13.688,5.254 0.027,0 0.25,0.07 0.25,0.07 0.121,0.055 1.433,0.121 1.433,0.121 2.121,0 4.067,-0.625 5.5,-1.754 1.496,-1.183 2.375,-2.754 2.563,-4.871 l 4.246,-39.184 c 0.191,-1.503 1.25,-2.753 2.656,-3.191 1.477,-0.434 3.066,0.129 4.004,1.316 0,0 24.305,22.247 24.402,22.313 1.692,1.684 3.34,2.434 5.188,1.809 2.594,-0.879 2.629,-2.567 3,-4.883 1.375,-9.739 11.062,-82.547 12.215,-92.352 -14.832,9.117 -17.403,36.926 -21.961,57.422 -0.989,5.184 -5.617,4.758 -5.129,-0.996 l 2.187,-23.184 c -3.281,1.184 -13.679,5.125 -17.308,6.493 -0.782,0.316 -1.442,0.382 -1.719,0.382 -3.094,-0.129 -4.027,-2.812 -3.656,-4.375 2.371,-10.254 10.781,-41.992 14.429,-56.562"
         style="fill:#deddde;fill-opacity:1;fill-rule:nonzero;stroke:none"
         id="path132" />
      <path
         d="m 909.887,210.508 c -2.614,-0.957 -8.403,-1.426 -11.285,-1.184 -0.782,0.071 -1.461,0.188 -2.032,0.371 l -0.398,0.313 -5.813,28.191 c -1.062,5.188 -5.339,4.801 -4.843,-0.937 l 2.968,-29.063 c -0.781,-1.5 -5.093,-8.629 -9.218,-8.629 -4.121,0 -8.438,7.129 -9.215,8.629 l 2.957,29.063 c 0.508,5.738 -3.781,6.125 -4.832,0.937 l -5.817,-28.191 -0.406,-0.313 c -0.558,-0.183 -1.25,-0.3 -2.031,-0.371 -2.875,-0.242 -8.668,0.227 -11.281,1.184 3.66,14.57 12.062,46.308 14.441,56.562 0.371,1.563 -0.566,4.246 -3.656,4.375 -0.285,0 -0.942,-0.066 -1.723,-0.382 -3.621,-1.368 -14.031,-5.309 -17.312,-6.493 l 2.187,23.184 c 0.492,5.754 -4.133,6.18 -5.121,0.996 -4.566,-20.496 -7.125,-48.305 -21.969,-57.422 1.153,9.805 10.84,82.613 12.223,92.352 0.371,2.316 0.402,4.004 2.992,4.883 1.848,0.625 3.508,-0.125 5.192,-1.809 0.089,-0.066 24.41,-22.313 24.41,-22.313 0.933,-1.187 2.523,-1.75 3.992,-1.316 1.406,0.438 2.535,1.688 2.723,3.191 l 3.371,27.618 c 0.125,1.066 -0.188,2.129 -0.938,2.871 -0.687,0.824 -1.719,1.32 -2.742,1.32 0,0 -1.945,0 -3.82,0 l 1.004,8.555 c 2.746,1.32 10.187,4.699 13.683,5.254 0.027,0 0.254,0.07 0.254,0.07 0.117,0.055 1.434,0.121 1.434,0.121 2.121,0 4.062,-0.625 5.5,-1.754 1.5,-1.183 2.375,-2.754 2.558,-4.871 l 4.254,-39.184 c 0.188,-1.503 1.25,-2.753 2.656,-3.191 1.469,-0.434 3.063,0.129 3.996,1.316 0,0 24.309,22.247 24.407,22.313 1.687,1.684 3.34,2.434 5.191,1.809 2.594,-0.879 2.621,-2.567 2.992,-4.883 1.383,-9.739 11.067,-82.547 12.223,-92.352 -14.84,9.117 -17.402,36.926 -21.969,57.422 -0.984,5.184 -5.613,4.758 -5.121,-0.996 l 2.184,-23.184 c -3.285,1.184 -13.684,5.125 -17.309,6.493 -0.777,0.316 -1.437,0.382 -1.719,0.382 -3.093,-0.129 -4.031,-2.812 -3.66,-4.375 2.379,-10.254 10.781,-41.992 14.438,-56.562"
         style="fill:#deddde;fill-opacity:1;fill-rule:nonzero;stroke:none"
         id="path134" />
    </g>
  </g>
</svg>
